<svg xmlns="http://www.w3.org/2000/svg" xmlns:xlink="http://www.w3.org/1999/xlink" xmlns:lucid="lucid" width="2054.44" height="5988.67"><g transform="translate(74.42391565789997 1733.4979540560405)" lucid:page-tab-id="0_0"><path d="M-500-2000h2500v6500H-500z" fill="#f2f3f5"/><path d="M480.22-1728a5 5 0 0 1 5-5h1489.3a5 5 0 0 1 5 5v5977.67a5 5 0 0 1-5 5H485.22a5 5 0 0 1-5-5z" stroke="#333" fill-opacity="0"/><use xlink:href="#a" transform="matrix(1,0,0,1,488.21583548789806,-1724.9979540560405) translate(697.921875 19.014973958333332)"/><path d="M319.97-863.25c0 10.9-8.85 19.75-19.75 19.75s-19.75-8.84-19.75-19.75c0-10.9 8.84-19.75 19.75-19.75 10.9 0 19.75 8.84 19.75 19.75z" stroke="#000" stroke-width="4" fill="#fff"/><path d="M300.22-843.5v50.3a17.25 17.25 0 0 0 2.67 9.23L340.2-725m-40-63.2l-40 63.2m0-98.75h80" stroke="#000" stroke-width="4" fill="none"/><path d="M260.22-878a5 5 0 0 1 5-5h70a5 5 0 0 1 5 5v170a5 5 0 0 1-5 5h-70a5 5 0 0 1-5-5z" fill="none"/><use xlink:href="#b" transform="matrix(1,0,0,1,180.21583548789795,-724.9979540560405) translate(77.85807291666666 15.567708333333336)"/><path d="M950.22-1383c0 38.66-76.12 70-170 70-93.9 0-170-31.34-170-70s76.1-70 170-70c93.88 0 170 31.34 170 70z" stroke="#000" stroke-width="4" fill="#fff"/><use xlink:href="#c" transform="matrix(1,0,0,1,610.215835487898,-1452.9979540560405) translate(65.7645486111111 82.63888888888889)"/><use xlink:href="#d" transform="matrix(1,0,0,1,610.215835487898,-1452.9979540560405) translate(193.15604166666665 82.63888888888889)"/><path d="M2.55 3150.8c0 10.9-8.85 19.74-19.75 19.74s-19.75-8.84-19.75-19.75c0-10.92 8.84-19.76 19.75-19.76 10.9 0 19.75 8.84 19.75 19.75z" stroke="#000" stroke-width="4" fill="#fff"/><path d="M-17.2 3170.54v50.3a17.25 17.25 0 0 0 2.67 9.22l37.33 58.98m-40-63.2l-40 63.2m0-98.75h80" stroke="#000" stroke-width="4" fill="none"/><path d="M-57.2 3136.04a5 5 0 0 1 5-5h70a5 5 0 0 1 5 5v170a5 5 0 0 1-5 5h-70a5 5 0 0 1-5-5z" fill="none"/><use xlink:href="#e" transform="matrix(1,0,0,1,-137.20294457981606,3289.039249367165) translate(81.84244791666666 15.567708333333336)"/><path d="M29.35 701.13c0 10.9-8.84 19.75-19.75 19.75-10.9 0-19.75-8.84-19.75-19.75 0-10.9 8.84-19.75 19.75-19.75 10.9 0 19.75 8.85 19.75 19.75z" stroke="#000" stroke-width="4" fill="#fff"/><path d="M9.6 720.88v50.3a17.25 17.25 0 0 0 2.68 9.23L49.6 839.4m-40-63.2l-40 63.2m0-98.75h80" stroke="#000" stroke-width="4" fill="none"/><path d="M-30.4 686.38a5 5 0 0 1 5-5h70a5 5 0 0 1 5 5v170a5 5 0 0 1-5 5h-70a5 5 0 0 1-5-5z" fill="none"/><use xlink:href="#f" transform="matrix(1,0,0,1,-110.39917607456664,839.3821892177004) translate(37.97526041666667 15.567708333333336)"/><path d="M970.22-443c0 38.66-76.12 70-170 70-93.9 0-170-31.34-170-70s76.1-70 170-70c93.88 0 170 31.34 170 70z" stroke="#000" stroke-width="4" fill="#fff"/><use xlink:href="#c" transform="matrix(1,0,0,1,630.215835487898,-512.9979540560405) translate(52.464852430555545 82.63888888888889)"/><use xlink:href="#g" transform="matrix(1,0,0,1,630.215835487898,-512.9979540560405) translate(179.8563454861111 82.63888888888889)"/><path d="M960.22-923c0 38.66-76.12 70-170 70-93.9 0-170-31.34-170-70s76.1-70 170-70c93.88 0 170 31.34 170 70z" stroke="#000" stroke-width="4" fill="#fff"/><use xlink:href="#c" transform="matrix(1,0,0,1,620.215835487898,-992.9979540560405) translate(28.51628472222223 82.63888888888889)"/><use xlink:href="#h" transform="matrix(1,0,0,1,620.215835487898,-992.9979540560405) translate(155.9077777777778 82.63888888888889)"/><path d="M970.22 117c0 38.66-76.12 70-170 70-93.9 0-170-31.34-170-70s76.1-70 170-70c93.88 0 170 31.34 170 70z" stroke="#000" stroke-width="4" fill="#fff"/><use xlink:href="#c" transform="matrix(1,0,0,1,630.215835487898,47.0020459439595) translate(47.57335937499999 82.63888888888889)"/><use xlink:href="#i" transform="matrix(1,0,0,1,630.215835487898,47.0020459439595) translate(174.96485243055554 82.63888888888889)"/><path d="M960.22-723c0 38.66-76.12 70-170 70-93.9 0-170-31.34-170-70s76.1-70 170-70c93.88 0 170 31.34 170 70z" stroke="#000" stroke-width="4" fill="#fff"/><use xlink:href="#j" transform="matrix(1,0,0,1,620.215835487898,-792.9979540560405) translate(63.59223958333332 82.63888888888889)"/><use xlink:href="#k" transform="matrix(1,0,0,1,620.215835487898,-792.9979540560405) translate(163.21463541666668 82.63888888888889)"/><path d="M980.22-1143c0 38.66-80.6 70-180 70-99.42 0-180-31.34-180-70s80.58-70 180-70c99.4 0 180 31.34 180 70z" stroke="#000" stroke-width="4" fill="#fff"/><use xlink:href="#l" transform="matrix(1,0,0,1,620.215835487898,-1212.9979540560405) translate(42.967239583333324 82.63888888888889)"/><use xlink:href="#m" transform="matrix(1,0,0,1,620.215835487898,-1212.9979540560405) translate(186.78017361111108 82.63888888888889)"/><path d="M960.22-163c0 33.14-71.64 60-160 60-88.37 0-160-26.86-160-60 0-33.13 71.63-60 160-60 88.36 0 160 26.87 160 60z" stroke="#000" stroke-width="4" fill="#fff"/><use xlink:href="#n" transform="matrix(1,0,0,1,640.215835487898,-222.9979540560405) translate(55.45313368055555 71.38888888888889)"/><use xlink:href="#o" transform="matrix(1,0,0,1,640.215835487898,-222.9979540560405) translate(170.93490451388888 71.38888888888889)"/><path d="M1520.22-1513c0 33.14-67.16 60-150 60-82.85 0-150-26.86-150-60 0-33.13 67.15-60 150-60 82.84 0 150 26.87 150 60z" stroke="#000" stroke-width="4" fill="#fff"/><use xlink:href="#p" transform="matrix(1,0,0,1,1220.215835487898,-1572.9979540560405) translate(48.59766493055555 71.38888888888889)"/><use xlink:href="#q" transform="matrix(1,0,0,1,1220.215835487898,-1572.9979540560405) translate(186.74436631944442 71.38888888888889)"/><path d="M1520.22-1368c0 33.14-67.16 60-150 60-82.85 0-150-26.86-150-60 0-33.13 67.15-60 150-60 82.84 0 150 26.87 150 60z" stroke="#000" stroke-width="4" fill="#fff"/><use xlink:href="#r" transform="matrix(1,0,0,1,1220.215835487898,-1427.9979540560405) translate(53.41320312499998 71.38888888888889)"/><use xlink:href="#q" transform="matrix(1,0,0,1,1220.215835487898,-1427.9979540560405) translate(181.928828125 71.38888888888889)"/><path d="M1520.22-1223c0 33.14-67.16 60-150 60-82.85 0-150-26.86-150-60 0-33.13 67.15-60 150-60 82.84 0 150 26.87 150 60z" stroke="#000" stroke-width="4" fill="#fff"/><use xlink:href="#s" transform="matrix(1,0,0,1,1220.215835487898,-1282.9979540560405) translate(66.15842881944444 71.38888888888889)"/><use xlink:href="#q" transform="matrix(1,0,0,1,1220.215835487898,-1282.9979540560405) translate(169.18360243055554 71.38888888888889)"/><path d="M1520.22-1078c0 33.14-67.16 60-150 60-82.85 0-150-26.86-150-60 0-33.13 67.15-60 150-60 82.84 0 150 26.87 150 60z" stroke="#000" stroke-width="4" fill="#fff"/><use xlink:href="#t" transform="matrix(1,0,0,1,1220.215835487898,-1137.9979540560405) translate(102.86741319444445 52.63888888888889)"/><use xlink:href="#u" transform="matrix(1,0,0,1,1220.215835487898,-1137.9979540560405) translate(84.51671875 90.28211805555557)"/><path d="M1520.22-933c0 33.14-67.16 60-150 60-82.85 0-150-26.86-150-60 0-33.13 67.15-60 150-60 82.84 0 150 26.87 150 60z" stroke="#000" stroke-width="4" fill="#fff"/><use xlink:href="#v" transform="matrix(1,0,0,1,1220.215835487898,-992.9979540560405) translate(50.359817708333324 71.38888888888889)"/><use xlink:href="#u" transform="matrix(1,0,0,1,1220.215835487898,-992.9979540560405) translate(118.67361979166667 71.38888888888889)"/><path d="M1520.22-793c0 33.14-67.16 60-150 60-82.85 0-150-26.86-150-60 0-33.13 67.15-60 150-60 82.84 0 150 26.87 150 60z" stroke="#000" stroke-width="4" fill="#fff"/><use xlink:href="#w" transform="matrix(1,0,0,1,1220.215835487898,-852.9979540560405) translate(43.493498263888895 71.38888888888889)"/><use xlink:href="#u" transform="matrix(1,0,0,1,1220.215835487898,-852.9979540560405) translate(125.53993923611112 71.38888888888889)"/><path d="M1500.22-513c0 33.14-67.16 60-150 60-82.85 0-150-26.86-150-60 0-33.13 67.15-60 150-60 82.84 0 150 26.87 150 60z" stroke="#000" stroke-width="4" fill="#fff"/><use xlink:href="#x" transform="matrix(1,0,0,1,1200.215835487898,-572.9979540560405) translate(80.59744791666665 52.63888888888889)"/><use xlink:href="#g" transform="matrix(1,0,0,1,1200.215835487898,-572.9979540560405) translate(96.16059895833334 90.28211805555557)"/><path d="M1500.22-313c0 33.14-67.16 60-150 60-82.85 0-150-26.86-150-60 0-33.13 67.15-60 150-60 82.84 0 150 26.87 150 60z" stroke="#000" stroke-width="4" fill="#fff"/><use xlink:href="#y" transform="matrix(1,0,0,1,1200.215835487898,-372.9979540560405) translate(54.0892013888889 52.63888888888889)"/><use xlink:href="#g" transform="matrix(1,0,0,1,1200.215835487898,-372.9979540560405) translate(96.16059895833334 90.28211805555557)"/><path d="M1520.22-15.3c0 33.14-67.16 60-150 60-82.85 0-150-26.86-150-60s67.15-60 150-60c82.84 0 150 26.86 150 60z" stroke="#000" stroke-width="4" fill="#fff"/><use xlink:href="#s" transform="matrix(1,0,0,1,1220.215835487898,-75.29972139930874) translate(39.75651909722221 71.38888888888889)"/><use xlink:href="#i" transform="matrix(1,0,0,1,1220.215835487898,-75.29972139930874) translate(142.7816927083333 71.38888888888889)"/><path d="M1520.22 129.7c0 33.14-67.16 60-150 60-82.85 0-150-26.86-150-60s67.15-60 150-60c82.84 0 150 26.86 150 60z" stroke="#000" stroke-width="4" fill="#fff"/><use xlink:href="#v" transform="matrix(1,0,0,1,1220.215835487898,69.70027860069126) translate(57.112204861111096 71.38888888888889)"/><use xlink:href="#i" transform="matrix(1,0,0,1,1220.215835487898,69.70027860069126) translate(125.42600694444444 71.38888888888889)"/><path d="M1520.22 269.7c0 33.14-67.16 60-150 60-82.85 0-150-26.86-150-60s67.15-60 150-60c82.84 0 150 26.86 150 60z" stroke="#000" stroke-width="4" fill="#fff"/><use xlink:href="#w" transform="matrix(1,0,0,1,1220.215835487898,209.70027860069126) translate(50.24588541666667 71.38888888888889)"/><use xlink:href="#i" transform="matrix(1,0,0,1,1220.215835487898,209.70027860069126) translate(132.2923263888889 71.38888888888889)"/><path d="M303.14-795.14l304.15-586.08M303.16-795.2l-2.33 4.5" stroke="#5e5e5e" stroke-width="4" fill="none"/><path d="M608.4-1386.3l-.07.67-.1 1.32V-1382.35l.05 1.3.03.4-2.78-1.46 2.33-4.47z" stroke="#5e5e5e" stroke-width=".05" fill="#5e5e5e"/><path d="M303.16-791.23L639.92-153.4M303.18-791.18l-2.36-4.47" stroke="#5e5e5e" stroke-width="4" fill="none"/><path d="M640.33-152.8l.52 1.15.6 1.2.66 1.2.16.27-1.75.92-2.35-4.46 1.9-1z" stroke="#5e5e5e" stroke-width=".05" fill="#5e5e5e"/><path d="M304.15-793.5l338.6-90.37M304.2-793.53l-4.88 1.3" stroke="#5e5e5e" stroke-width="4" fill="none"/><path d="M644.5-884.5l2.46 1.55-3.74 1-1.02-3.82.35-.1z" stroke="#5e5e5e" stroke-width=".05" fill="#5e5e5e"/><path d="M616.26-723.43l-312.08-69.14" stroke="#5e5e5e" stroke-width="4" fill="none"/><path d="M618.3-725l-.06.68-.02 1.3v.7l.06 1.3v.06l-2.5-.55.86-3.87z" stroke="#5e5e5e" stroke-width=".05" fill="#5e5e5e"/><path d="M304.23-792.55l-4.94-1.1M303.58-791.53l323.27 347.07M303.62-791.5l-3.44-3.7" stroke="#5e5e5e" stroke-width="4" fill="none"/><path d="M628.34-445.76v.13l-.1 1.3-.02 1.32v.67l.06 1.3.1 1.1-3-3.22 2.88-2.7z" stroke="#5e5e5e" stroke-width=".05" fill="#5e5e5e"/><path d="M303.56-794.48l313.3-347.03M303.6-794.52l-3.4 3.75" stroke="#5e5e5e" stroke-width="4" fill="none"/><path d="M618.32-1145.5l-.08 1.25-.02 1.24v.64l.05 1.23.08.93-.04.05-2.92-2.65 3-3.34z" stroke="#5e5e5e" stroke-width=".05" fill="#5e5e5e"/><path d="M302.9-791.1L627.54 115.1M302.9-791.07l-1.7-4.75" stroke="#5e5e5e" stroke-width="4" fill="none"/><path d="M628.24 115.69l-.02 1.3v.67l.06 1.3.1 1.16-1 .36-1.72-4.76 2.64-.95z" stroke="#5e5e5e" stroke-width=".05" fill="#5e5e5e"/><path d="M1216.3-1512.45l-274 77.4" stroke="#5e5e5e" stroke-width="4" fill="none"/><path d="M1218.24-1514.1l-.02 1.1v.57l.05 1.1.03.36-1.52.43-1.08-3.8 2.6-.73z" stroke="#5e5e5e" stroke-width=".05" fill="#5e5e5e"/><path d="M919.53-1428.63l17.43-17.9 6.8 24.05z" stroke="#5e5e5e" stroke-width="4" fill="#fff"/><path d="M1216.22-1368.1l-236.4-13.34" stroke="#5e5e5e" stroke-width="4" fill="none"/><path d="M1218.3-1369.97l-.06.86-.02 1.1v.57l.05 1.1.02.3-2.24-.1.22-3.95z" stroke="#5e5e5e" stroke-width=".05" fill="#5e5e5e"/><path d="M956.2-1382.77l22.33-11.26-1.4 24.96z" stroke="#5e5e5e" stroke-width="4" fill="#fff"/><path d="M1216.35-1223.7L941.8-1328.75" stroke="#5e5e5e" stroke-width="4" fill="none"/><path d="M1218.3-1225.08l-.06.97-.02 1.1v.57l.05 1.1.04.48-2.7-1.04 1.4-3.68z" stroke="#5e5e5e" stroke-width=".05" fill="#5e5e5e"/><path d="M919.72-1337.2l24.7-3.93-8.94 23.35z" stroke="#5e5e5e" stroke-width="4" fill="#fff"/><path d="M1216.38-1077.2L965.76-969.3" stroke="#5e5e5e" stroke-width="4" fill="none"/><path d="M1218.24-1079.1l-.02 1.1v.57l.05 1.1.04.44-1.2.53-1.55-3.63 2.76-1.2z" stroke="#5e5e5e" stroke-width=".05" fill="#5e5e5e"/><path d="M944.04-959.92l14.94-20.05 9.9 22.96z" stroke="#5e5e5e" stroke-width="4" fill="#fff"/><path d="M1216.22-932.92l-226.37 8.84" stroke="#5e5e5e" stroke-width="4" fill="none"/><path d="M1218.24-934.1l-.02 1.1v.57l.05 1.1.02.3-2.06.1-.15-3.96 2.2-.08z" stroke="#5e5e5e" stroke-width=".05" fill="#5e5e5e"/><path d="M966.2-923.15l21.16-13.34.98 25z" stroke="#5e5e5e" stroke-width="4" fill="#fff"/><path d="M1216.32-793.65l-249.17-85.5" stroke="#5e5e5e" stroke-width="4" fill="none"/><path d="M1218.3-795.06l-.06.95-.02 1.1v.57l.05 1.1.04.45-2.66-.92 1.28-3.73z" stroke="#5e5e5e" stroke-width=".05" fill="#5e5e5e"/><path d="M944.78-886.8l24.54-4.8-8.12 23.64z" stroke="#5e5e5e" stroke-width="4" fill="#fff"/><path d="M1196.24-512.66l-211.18 35.92" stroke="#5e5e5e" stroke-width="4" fill="none"/><path d="M1198.24-514.1l-.02 1.1v.57l.05 1.1.03.32-1.77.3-.67-3.9 2.44-.4z" stroke="#5e5e5e" stroke-width=".05" fill="#5e5e5e"/><path d="M961.75-472.77L981-488.72l4.2 24.64z" stroke="#5e5e5e" stroke-width="4" fill="#fff"/><path d="M1216.5-344.6l-239.37-56.58" stroke="#5e5e5e" stroke-width="4" fill="none"/><path d="M1220.67-345.65l-1.7 1.12-2.63 1.92-.34-.1.9-3.84z" stroke="#5e5e5e" stroke-width=".05" fill="#5e5e5e"/><path d="M954.1-406.62l23.96-7.2-5.75 24.34z" stroke="#5e5e5e" stroke-width="4" fill="#fff"/><path d="M1235.9 15.88l-258.1 59.9" stroke="#5e5e5e" stroke-width="4" fill="none"/><path d="M1237.55 15.2l2.5 1.74-3.75.87-.9-3.84.38-.08z" stroke="#5e5e5e" stroke-width=".05" fill="#5e5e5e"/><path d="M954.76 81.13l18.26-17.07 5.66 24.35z" stroke="#5e5e5e" stroke-width="4" fill="#fff"/><path d="M1216.22 129.7H997.25" stroke="#5e5e5e" stroke-width="4" fill="none"/><path d="M1218.24 128.6l-.02 1.1v.57l.05 1.1.02.3h-2.14v-3.94h2.13z" stroke="#5e5e5e" stroke-width=".05" fill="#5e5e5e"/><path d="M973.6 129.7l21.65-12.5v25z" stroke="#5e5e5e" stroke-width="4" fill="#fff"/><path d="M1216.34 269l-257.9-96.17" stroke="#5e5e5e" stroke-width="4" fill="none"/><path d="M1218.3 267.62l-.06.97-.02 1.1v.57l.05 1.1.04.47-2.7-1 1.38-3.7z" stroke="#5e5e5e" stroke-width=".05" fill="#5e5e5e"/><path d="M936.27 164.56l24.65-4.14-8.73 23.42z" stroke="#5e5e5e" stroke-width="4" fill="#fff"/><path d="M1080.22 619.33c0 37.37-107.46 67.67-240 67.67-132.55 0-240-30.3-240-67.67 0-37.37 107.45-67.67 240-67.67 132.54 0 240 30.3 240 67.67z" stroke="#000" stroke-width="4" fill="#fff"/><use xlink:href="#c" transform="matrix(1,0,0,1,600.215835487898,551.6586102400091) translate(122.46485243055555 81.13888888888889)"/><use xlink:href="#z" transform="matrix(1,0,0,1,600.215835487898,551.6586102400091) translate(249.8563454861111 81.13888888888889)"/><path d="M1640.14 466.66c0 33.14-67.16 60-150 60s-150-26.86-150-60 67.16-60 150-60 150 26.86 150 60z" stroke="#000" stroke-width="4" fill="#fff"/><use xlink:href="#s" transform="matrix(1,0,0,1,1340.1396055647917,406.658610240009) translate(44.64801215277778 71.38888888888889)"/><use xlink:href="#g" transform="matrix(1,0,0,1,1340.1396055647917,406.658610240009) translate(147.6731857638889 71.38888888888889)"/><path d="M1640.14 611.66c0 33.14-67.16 60-150 60s-150-26.86-150-60 67.16-60 150-60 150 26.86 150 60z" stroke="#000" stroke-width="4" fill="#fff"/><use xlink:href="#v" transform="matrix(1,0,0,1,1340.1396055647917,551.658610240009) translate(62.00369791666667 71.38888888888889)"/><use xlink:href="#g" transform="matrix(1,0,0,1,1340.1396055647917,551.658610240009) translate(130.3175 71.38888888888889)"/><path d="M1640.14 751.66c0 33.14-67.16 60-150 60s-150-26.86-150-60 67.16-60 150-60 150 26.86 150 60z" stroke="#000" stroke-width="4" fill="#fff"/><use xlink:href="#w" transform="matrix(1,0,0,1,1340.1396055647917,691.658610240009) translate(55.13737847222221 71.38888888888889)"/><use xlink:href="#g" transform="matrix(1,0,0,1,1340.1396055647917,691.658610240009) translate(137.18381944444445 71.38888888888889)"/><path d="M1336.3 467.45l-250.6 107.93" stroke="#5e5e5e" stroke-width="4" fill="none"/><path d="M1338.16 465.55l-.02 1.1v.57l.05 1.1.03.45-1.2.5-1.56-3.6 2.76-1.2z" stroke="#5e5e5e" stroke-width=".05" fill="#5e5e5e"/><path d="M1063.97 584.73l14.94-20.04 9.9 22.95z" stroke="#5e5e5e" stroke-width="4" fill="#fff"/><path d="M1336.14 611.72l-226.3 6.78" stroke="#5e5e5e" stroke-width="4" fill="none"/><path d="M1338.16 610.55l-.02 1.1v.57l.05 1.1.02.3-2.07.07-.12-3.95 2.2-.07z" stroke="#5e5e5e" stroke-width=".05" fill="#5e5e5e"/><path d="M1086.2 619.2l21.28-13.13.75 25z" stroke="#5e5e5e" stroke-width="4" fill="#fff"/><path d="M1336.25 751l-249.17-85.48" stroke="#5e5e5e" stroke-width="4" fill="none"/><path d="M1338.22 749.6l-.06.95-.02 1.1v.57l.05 1.1.03.46-2.67-.92 1.28-3.74z" stroke="#5e5e5e" stroke-width=".05" fill="#5e5e5e"/><path d="M1064.7 657.85l24.54-4.8-8.1 23.65z" stroke="#5e5e5e" stroke-width="4" fill="#fff"/><path d="M1060.22 1079.67c0 37.38-89.55 67.67-200 67.67-110.46 0-200-30.3-200-67.67 0-37.37 89.54-67.67 200-67.67 110.45 0 200 30.3 200 67.67z" stroke="#000" stroke-width="4" fill="#fff"/><use xlink:href="#A" transform="matrix(1,0,0,1,660.215835487898,1012.0020459439592) translate(82.55599826388888 59.88888888888889)"/><use xlink:href="#z" transform="matrix(1,0,0,1,660.215835487898,1012.0020459439592) translate(209.76519965277777 59.88888888888889)"/><use xlink:href="#B" transform="matrix(1,0,0,1,660.215835487898,1012.0020459439592) translate(144.24653645833334 97.53211805555557)"/><path d="M1620.06 927c0 33.14-67.15 60-150 60-82.84 0-150-26.86-150-60 0-33.13 67.16-60 150-60 82.85 0 150 26.87 150 60z" stroke="#000" stroke-width="4" fill="#fff"/><use xlink:href="#C" transform="matrix(1,0,0,1,1320.0633756416855,867.0020459439595) translate(39.59701388888888 71.38888888888889)"/><use xlink:href="#g" transform="matrix(1,0,0,1,1320.0633756416855,867.0020459439595) translate(152.72418402777777 71.38888888888889)"/><path d="M1620.06 1072c0 33.14-67.15 60-150 60-82.84 0-150-26.86-150-60 0-33.13 67.16-60 150-60 82.85 0 150 26.87 150 60z" stroke="#000" stroke-width="4" fill="#fff"/><use xlink:href="#D" transform="matrix(1,0,0,1,1320.0633756416855,1012.0020459439595) translate(36.80947048611111 71.38888888888889)"/><use xlink:href="#g" transform="matrix(1,0,0,1,1320.0633756416855,1012.0020459439595) translate(155.51172743055554 71.38888888888889)"/><path d="M1620.06 1212c0 33.14-67.15 60-150 60-82.84 0-150-26.86-150-60 0-33.13 67.16-60 150-60 82.85 0 150 26.87 150 60z" stroke="#000" stroke-width="4" fill="#fff"/><use xlink:href="#E" transform="matrix(1,0,0,1,1320.0633756416855,1152.0020459439595) translate(79.32140625 52.63888888888889)"/><use xlink:href="#g" transform="matrix(1,0,0,1,1320.0633756416855,1152.0020459439595) translate(96.16059895833334 90.28211805555557)"/><path d="M1316.23 927.8L1065.6 1035.7" stroke="#5e5e5e" stroke-width="4" fill="none"/><path d="M1318.1 925.9l-.04 1.1v.57l.06 1.1.03.44-1.2.53-1.55-3.63 2.75-1.2z" stroke="#5e5e5e" stroke-width=".05" fill="#5e5e5e"/><path d="M1043.9 1045.08l14.93-20.05 9.9 22.96z" stroke="#5e5e5e" stroke-width="4" fill="#fff"/><path d="M1316.06 1072.06l-226.2 6.8" stroke="#5e5e5e" stroke-width="4" fill="none"/><path d="M1318.1 1070.9l-.04 1.1v.57l.06 1.1.02.3-2.07.07-.12-3.95 2.2-.08z" stroke="#5e5e5e" stroke-width=".05" fill="#5e5e5e"/><path d="M1066.2 1079.55l21.28-13.14.75 25z" stroke="#5e5e5e" stroke-width="4" fill="#fff"/><path d="M1316.17 1211.35L1067 1125.87" stroke="#5e5e5e" stroke-width="4" fill="none"/><path d="M1318.15 1209.94l-.06.95-.04 1.1v.57l.06 1.1.03.45-2.67-.92 1.28-3.73z" stroke="#5e5e5e" stroke-width=".05" fill="#5e5e5e"/><path d="M1044.63 1118.2l24.53-4.8-8.1 23.64z" stroke="#5e5e5e" stroke-width="4" fill="#fff"/><path d="M980.22 1567c0 33.14-62.68 60-140 60s-140-26.86-140-60c0-33.13 62.68-60 140-60s140 26.87 140 60z" stroke="#000" stroke-width="4" fill="#fff"/><use xlink:href="#F" transform="matrix(1,0,0,1,700.215835487898,1507.0020459439595) translate(72.63303819444444 71.38888888888889)"/><path d="M1660.22 1447c0 33.14-89.55 60-200 60-110.46 0-200-26.86-200-60 0-33.13 89.54-60 200-60 110.45 0 200 26.87 200 60z" stroke="#000" stroke-width="4" fill="#fff"/><use xlink:href="#G" transform="matrix(1,0,0,1,1260.215835487898,1387.0020459439595) translate(82.06229166666667 52.63888888888889)"/><use xlink:href="#H" transform="matrix(1,0,0,1,1260.215835487898,1387.0020459439595) translate(200.47592013888888 52.63888888888889)"/><use xlink:href="#I" transform="matrix(1,0,0,1,1260.215835487898,1387.0020459439595) translate(109.21615451388887 90.28211805555557)"/><path d="M1650.22 1627c0 33.14-87.3 60-195 60s-195-26.86-195-60c0-33.13 87.3-60 195-60s195 26.87 195 60z" stroke="#000" stroke-width="4" fill="#fff"/><use xlink:href="#J" transform="matrix(1,0,0,1,1260.215835487898,1567.0020459439595) translate(54.85309027777778 71.38888888888889)"/><use xlink:href="#K" transform="matrix(1,0,0,1,1260.215835487898,1567.0020459439595) translate(201.26368055555557 71.38888888888889)"/><path d="M1420.22 1845.26c0 33.14-49.25 60-110 60-60.76 0-110-26.86-110-60 0-33.13 49.24-60 110-60 60.75 0 110 26.87 110 60z" stroke="#000" stroke-width="4" fill="#fff"/><use xlink:href="#L" transform="matrix(1,0,0,1,1200.215835487898,1785.2641911879793) translate(41.1747048611111 52.63888888888889)"/><use xlink:href="#M" transform="matrix(1,0,0,1,1200.215835487898,1785.2641911879793) translate(45.88390624999999 90.28211805555557)"/><use xlink:href="#N" transform="matrix(1,0,0,1,1200.215835487898,1785.2641911879793) translate(116.20291666666667 90.28211805555557)"/><path d="M1840.22 1845.26c0 33.14-76.37 60-170.58 60-94.2 0-170.57-26.86-170.57-60 0-33.13 76.37-60 170.57-60 94.2 0 170.58 26.87 170.58 60z" stroke="#000" stroke-width="4" fill="#fff"/><use xlink:href="#J" transform="matrix(1,0,0,1,1499.0690988351953,1785.2641911879793) translate(66.51519965277777 52.63888888888889)"/><use xlink:href="#O" transform="matrix(1,0,0,1,1499.0690988351953,1785.2641911879793) translate(212.92578993055557 52.63888888888889)"/><use xlink:href="#P" transform="matrix(1,0,0,1,1499.0690988351953,1785.2641911879793) translate(125.54731770833334 90.28211805555557)"/><path d="M1311.63 1781.85l75.24-75.24" stroke="#5e5e5e" stroke-width="4" fill="none"/><path d="M1313.06 1783.2l-.1.13-2.73-.07-2.84.04 2.87-2.88z" stroke="#5e5e5e" stroke-width=".05" fill="#5e5e5e"/><path d="M1403.6 1689.9l-6.48 24.14-17.68-17.68z" stroke="#5e5e5e" stroke-width="4" fill="#fff"/><path d="M1669.63 1781.16l-2.1 2.1-25.68-25.7h3.75v-.42zm-26.3-26.3h-3.75v.43l-54.12-54.14 2.08-2.08z" stroke="#3a414a" stroke-width=".05" fill="#3a414a"/><path d="M1671.77 1783.3l-2.12-.04-2.07.03 2.02-2.17z" fill="#3a414a"/><path stroke="#3a414a" stroke-width=".05" fill="#3a414a"/><path d="M1596.05 1688.45l-21.22 21.22-7.76-28.98z" fill="#fff"/><path d="M1598.9 1687.7l-24.83 24.82-9.1-33.92zm-23.3 19.12l17.6-17.6-24.05-6.44z" stroke="#3a414a" stroke-width=".05" fill="#3a414a"/><use xlink:href="#Q" transform="matrix(1,0,0,1,1639.578971289742,1754.8688809928788) translate(0 2.1527777777777777)"/><path d="M1256.26 1626.58l-242.8-52.78" stroke="#3a414a" stroke-width="4" fill="none"/><path d="M1258.32 1625l-.03.25-.07.88v1.31l.03.86.06.75-2.53-.55.83-3.86z" stroke="#3a414a" stroke-width=".05" fill="#3a414a"/><path d="M986.13 1567.85l28.57-9.14-6.37 29.33z" stroke="#3a414a" stroke-width="4" fill="#fff"/><path d="M1256.28 1447.52l-273.75 72.65" stroke="#3a414a" stroke-width="4" fill="none"/><path d="M1258.3 1445.3l-.07.85v1.28l.03.84.06.74-1.58.42-1-3.82 2.6-.7z" stroke="#3a414a" stroke-width=".05" fill="#3a414a"/><path d="M955.5 1527.35l21.25-21.17 7.7 29z" stroke="#3a414a" stroke-width="4" fill="#fff"/><path d="M1632.24 2038.77c0 33.14-83.28 60-186 60-102.74 0-186.02-26.86-186.02-60s83.28-60 186-60c102.74 0 186.02 26.86 186.02 60z" stroke="#000" stroke-width="4" fill="#fff"/><use xlink:href="#R" transform="matrix(1,0,0,1,1260.215835487898,1978.770992664383) translate(73.50825520833331 52.63888888888889)"/><use xlink:href="#S" transform="matrix(1,0,0,1,1260.215835487898,1978.770992664383) translate(164.608515625 52.63888888888889)"/><use xlink:href="#T" transform="matrix(1,0,0,1,1260.215835487898,1978.770992664383) translate(117.58486111111111 90.28211805555557)"/><path d="M1256.86 2037.3l-359.02-386.87" stroke="#3a414a" stroke-width="4" fill="none"/><path d="M1258.4 2036.05l-.1.9-.07.9v1.4l.03.9.08.9.1.87-3.07-3.3 2.9-2.7z" stroke="#3a414a" stroke-width=".05" fill="#3a414a"/><path d="M878.8 1629.92l28.67 8.84-22 20.4z" stroke="#3a414a" stroke-width="4" fill="#fff"/><path d="M1032.8 2110.5c0 33.14-74.45 60-166.3 60-91.83 0-166.28-26.86-166.28-60s74.45-60 166.3-60c91.83 0 166.28 26.86 166.28 60z" stroke="#000" stroke-width="4" fill="#fff"/><use xlink:href="#U" transform="matrix(1,0,0,1,700.215835487898,2050.500439244812) translate(64.12674479166665 52.63888888888889)"/><use xlink:href="#M" transform="matrix(1,0,0,1,700.215835487898,2050.500439244812) translate(83.01671875 90.28211805555557)"/><use xlink:href="#V" transform="matrix(1,0,0,1,700.215835487898,2050.500439244812) translate(153.33572916666668 90.28211805555557)"/><path d="M1032.8 2336.6c0 33.15-74.45 60-166.3 60-91.83 0-166.28-26.85-166.28-60 0-33.13 74.45-60 166.3-60 91.83 0 166.28 26.88 166.28 60z" stroke="#000" stroke-width="4" fill="#fff"/><use xlink:href="#W" transform="matrix(1,0,0,1,700.215835487898,2276.6121430794374) translate(62.18989583333332 52.63888888888889)"/><use xlink:href="#X" transform="matrix(1,0,0,1,700.215835487898,2276.6121430794374) translate(142.9754861111111 52.63888888888889)"/><use xlink:href="#Y" transform="matrix(1,0,0,1,700.215835487898,2276.6121430794374) translate(117.61415798611111 90.28211805555557)"/><path d="M13.54 770.88l582.74-151.05M13.6 770.87l-4.9 1.26" stroke="#3a414a" stroke-width="4" fill="none"/><path d="M598.3 617.53l-.07.9v1.36l.03.88.05.67-1.57.4-1-3.82 2.6-.67z" stroke="#3a414a" stroke-width=".05" fill="#3a414a"/><path d="M13.4 772.24l643 306.57M13.46 772.26L8.9 770.1" stroke="#3a414a" stroke-width="4" fill="none"/><path d="M658.3 1077.53v.02l-.06 1.06-.02 1.06v.56l.04 1.05.06.64-2.8-1.33 1.7-3.56z" stroke="#3a414a" stroke-width=".05" fill="#3a414a"/><path d="M12.9 772.9l684 792.6M12.95 772.93l-3.3-3.82" stroke="#3a414a" stroke-width="4" fill="none"/><path d="M698.32 1564.64l-.08 1.18-.02 1.17v.6l.05 1.18.1 1.18.04.3-3.02-3.52 2.98-2.58z" stroke="#3a414a" stroke-width=".05" fill="#3a414a"/><path d="M12.72 769.72L637.1-161.34M12.75 769.68l-2.8 4.2" stroke="#3a414a" stroke-width="4" fill="none"/><path d="M638.46-166.45l-.05.3-.1 1.06-.06 1.06-.02 1.03v.53l.04 1.04.1 1-2.93-1.96 2.82-4.2z" stroke="#3a414a" stroke-width=".05" fill="#3a414a"/><path d="M10.52 781.7L697.3 2108.72M10.54 781.74l-2.32-4.48" stroke="#3a414a" stroke-width="4" fill="none"/><path d="M698.3 2108.48l-.06 1-.02 1v.54l.04 1 .1 1 .08.74-.6.3-2.32-4.47 2.82-1.47z" stroke="#3a414a" stroke-width=".05" fill="#3a414a"/><path d="M10.4 781.75l687 1553.03M10.43 781.8l-2.04-4.62" stroke="#3a414a" stroke-width="4" fill="none"/><path d="M698.3 2334.6l-.06 1-.02 1v.53l.04 1 .1 1 .07.67-.8.36-2.05-4.63 2.75-1.2z" stroke="#3a414a" stroke-width=".05" fill="#3a414a"/><path d="M1620.06 2690c0 33.12-74.45 60-166.3 60-91.83 0-166.28-26.88-166.28-60 0-33.15 74.45-60 166.3-60 91.83 0 166.28 26.85 166.28 60z" stroke="#000" stroke-width="4" fill="#fff"/><use xlink:href="#Z" transform="matrix(1,0,0,1,1287.4792584708423,2629.9869822862565) translate(40.131302083333324 71.38888888888889)"/><use xlink:href="#aa" transform="matrix(1,0,0,1,1287.4792584708423,2629.9869822862565) translate(168.7684548611111 71.38888888888889)"/><path d="M1087.08 3114.48c0 33.13-74.45 60-166.3 60-91.83 0-166.28-26.87-166.28-60 0-33.14 74.45-60 166.3-60 91.83 0 166.28 26.86 166.28 60z" stroke="#000" stroke-width="4" fill="#fff"/><use xlink:href="#c" transform="matrix(1,0,0,1,754.4984782383319,3054.4783827354468) translate(64.96224826388885 52.63888888888889)"/><use xlink:href="#ab" transform="matrix(1,0,0,1,754.4984782383319,3054.4783827354468) translate(192.35374131944442 52.63888888888889)"/><use xlink:href="#ac" transform="matrix(1,0,0,1,754.4984782383319,3054.4783827354468) translate(115.73807291666665 90.28211805555557)"/><path d="M1642.7 2519.65c0 33.14-81.7 60-182.48 60-100.8 0-182.5-26.86-182.5-60s81.7-60 182.5-60c100.78 0 182.48 26.86 182.48 60z" stroke="#000" stroke-width="4" fill="#fff"/><use xlink:href="#G" transform="matrix(1,0,0,1,1277.7327784050403,2459.6505311611354) translate(69.45378472222222 71.38888888888889)"/><use xlink:href="#g" transform="matrix(1,0,0,1,1277.7327784050403,2459.6505311611354) translate(187.86741319444445 71.38888888888889)"/><path d="M1656.43 3077.16c0 33.14-74.45 60-166.3 60-91.83 0-166.28-26.86-166.28-60s74.45-60 166.3-60c91.83 0 166.28 26.86 166.28 60z" stroke="#000" stroke-width="4" fill="#fff"/><g><use xlink:href="#C" transform="matrix(1,0,0,1,1323.8475469793702,3017.160743627702) translate(72.59440972222221 71.38888888888889)"/><use xlink:href="#ad" transform="matrix(1,0,0,1,1323.8475469793702,3017.160743627702) translate(185.7215798611111 71.38888888888889)"/></g><path d="M1652.65 3221.04c0 33.14-74.45 60-166.3 60-91.83 0-166.3-26.86-166.3-60s74.47-60 166.3-60c91.85 0 166.3 26.86 166.3 60z" stroke="#000" stroke-width="4" fill="#fff"/><g><use xlink:href="#ae" transform="matrix(1,0,0,1,1320.0633756416855,3161.039249367165) translate(79.11893229166667 71.38888888888889)"/><use xlink:href="#ad" transform="matrix(1,0,0,1,1320.0633756416855,3161.039249367165) translate(179.19705729166668 71.38888888888889)"/></g><path d="M1158.33 3331.37c0 33.14-87.95 60-196.45 60-108.5 0-196.46-26.86-196.46-60s87.96-60 196.46-60c108.5 0 196.45 26.86 196.45 60z" stroke="#000" stroke-width="4" fill="#fff"/><g><use xlink:href="#W" transform="matrix(1,0,0,1,765.4187531550014,3271.369589370087) translate(66.0829079861111 52.63888888888889)"/><use xlink:href="#af" transform="matrix(1,0,0,1,765.4187531550014,3271.369589370087) translate(146.86849826388888 52.63888888888889)"/><use xlink:href="#ag" transform="matrix(1,0,0,1,765.4187531550014,3271.369589370087) translate(149.69401909722222 90.28211805555557)"/></g><path d="M1675.93 2882.33c0 33.14-82.8 60-184.92 60-102.12 0-184.9-26.86-184.9-60s82.78-60 184.9-60c102.14 0 184.93 26.86 184.93 60z" stroke="#000" stroke-width="4" fill="#fff"/><g><use xlink:href="#ah" transform="matrix(1,0,0,1,1306.0872187159025,2822.330711966825) translate(131.9290451388889 45.13888888888889)"/><use xlink:href="#ai" transform="matrix(1,0,0,1,1306.0872187159025,2822.330711966825) translate(40.84267361111109 82.78211805555557)"/><use xlink:href="#aa" transform="matrix(1,0,0,1,1306.0872187159025,2822.330711966825) translate(205.0570833333333 82.78211805555557)"/></g><path d="M1065.18 2690c0 33.12-81.7 60-182.48 60-100.78 0-182.48-26.88-182.48-60 0-33.15 81.7-60 182.48-60 100.78 0 182.48 26.85 182.48 60z" stroke="#000" stroke-width="4" fill="#fff"/><g><use xlink:href="#c" transform="matrix(1,0,0,1,700.215835487898,2629.9869822862565) translate(64.96485243055555 71.38888888888889)"/><use xlink:href="#g" transform="matrix(1,0,0,1,700.215835487898,2629.9869822862565) translate(192.3563454861111 71.38888888888889)"/></g><path d="M1319.32 2561.2l-266.97 78.75" stroke="#3a414a" stroke-width="4" fill="none"/><path d="M1319.03 2559.82l5.3 1.97-4.5 1.3-1-3.36z" stroke="#3a414a" stroke-width=".05" fill="#3a414a"/><path d="M1025.5 2647.86l20.7-21.73 8.47 28.77z" stroke="#3a414a" stroke-width="4" fill="#fff"/><path d="M1283.48 2690h-184.32" stroke="#3a414a" stroke-width="4" fill="none"/><path d="M1285.5 2688.98l-.02 1v.52l.05 1 .04.46h-2.14V2688h2.13z" stroke="#3a414a" stroke-width=".05" fill="#3a414a"/><path d="M1071.18 2690l25.98-15v30z" stroke="#3a414a" stroke-width="4" fill="#fff"/><path d="M1302.38 2881.3l-233.73-142.7" stroke="#3a414a" stroke-width="4" fill="none"/><path d="M1304.2 2880.1l-.04.4-.05.9v1.4l.03.9.08.92.02.1-2.9-1.77 2.05-3.37z" stroke="#3a414a" stroke-width=".05" fill="#3a414a"/><path d="M1044.77 2724l30 .75-15.64 25.6z" stroke="#3a414a" stroke-width="4" fill="#fff"/><path d="M1319.87 3077.47l-199.22 30.87" stroke="#3a414a" stroke-width="4" fill="none"/><path d="M1321.87 3076.15l-.02 1v.53l.05 1 .03.47-1.8.28-.6-3.9 2.4-.38z" stroke="#3a414a" stroke-width=".05" fill="#3a414a"/><path d="M1093 3112.63l23.38-18.8 4.6 29.64z" stroke="#3a414a" stroke-width="4" fill="#fff"/><path d="M1316.12 3220.56l-236.32-57.98" stroke="#3a414a" stroke-width="4" fill="none"/><path d="M1318.15 3219.03l-.07 1-.02 1v.52l.05 1 .06.55-2.56-.63.94-3.84z" stroke="#3a414a" stroke-width=".05" fill="#3a414a"/><path d="M1052.63 3155.92l28.8-8.38-7.15 29.14z" stroke="#3a414a" stroke-width="4" fill="#fff"/><path d="M1158.33 3524.3c0 33.13-87.95 60-196.45 60-108.5 0-196.46-26.87-196.46-60 0-33.14 87.96-60 196.46-60 108.5 0 196.45 26.86 196.45 60z" stroke="#000" stroke-width="4" fill="#fff"/><g><use xlink:href="#U" transform="matrix(1,0,0,1,765.4187531550014,3464.294388224129) translate(94.62674479166667 48.88888888888889)"/><use xlink:href="#M" transform="matrix(1,0,0,1,765.4187531550014,3464.294388224129) translate(63.105477430555545 86.53211805555557)"/><use xlink:href="#aj" transform="matrix(1,0,0,1,765.4187531550014,3464.294388224129) translate(133.42448784722222 86.53211805555557)"/></g><path d="M637.83-161.04L-16.8 3127.08" stroke="#3a414a" stroke-width="4" fill="none"/><path d="M638.4-166.02l-.1.93-.06 1.06-.02 1.03v.53l.04 1.04.05.54-2.42-.47 1-4.96zM-14.87 3127.4l-.37 1.87-1.86-.23-1.35.03-.8.15.5-2.58z" stroke="#3a414a" stroke-width=".05" fill="#3a414a"/><path d="M-13.6 3219.84l710.2-528.66M-13.55 3219.8l-4.05 3.03" stroke="#3a414a" stroke-width="4" fill="none"/><path d="M698.3 2688.13l-.06.93-.02.92v.48l.04.92.08.93v.05l-.6.45-2.35-3.17 2.97-2.22z" stroke="#3a414a" stroke-width=".05" fill="#3a414a"/><path d="M-13.21 3220.76l763.72-106M-13.16 3220.76l-5 .7" stroke="#3a414a" stroke-width="4" fill="none"/><path d="M752.52 3113.47l-.02 1v.52l.05 1 .04.46-1.86.26-.54-3.92 2.38-.33z" stroke="#3a414a" stroke-width=".05" fill="#3a414a"/><path d="M-13.22 3221.32l774.66 109.77M-13.17 3221.33l-5-.7" stroke="#3a414a" stroke-width="4" fill="none"/><path d="M763.52 3329.4l-.03.23-.06.87-.02.86v.45l.04.87.06.7-2.4-.33.54-3.9z" stroke="#3a414a" stroke-width=".05" fill="#3a414a"/><path d="M-13.33 3221.76l774.88 301.8M-13.29 3221.78l-4.7-1.83" stroke="#3a414a" stroke-width="4" fill="none"/><path d="M763.53 3522.22l-.04.34-.06.87-.02.85v.46l.04.86.07.86-2.74-1.07 1.42-3.7z" stroke="#3a414a" stroke-width=".05" fill="#3a414a"/><defs><path fill="#333" d="M605 22C247 22 24-145 68-462h297c-14 151 94 226 259 226 162 0 283-76 302-190 17-102-68-149-225-189l-158-41c-235-59-372-183-336-404 43-269 290-450 614-450 328 0 536 182 498 445h-294c8-119-76-188-229-188-156 0-256 72-273 172-30 154 195 185 336 221 239 61 415 185 374 436-45 271-266 446-628 446" id="ak"/><path fill="#333" d="M-37 396L69 170c124 42 243 19 271-107l19-60-235-1121h310c39 287 107 555 115 872 123-306 281-582 422-872h323L612 132c-98 180-235 294-460 294-77 0-149-13-189-30" id="al"/><path fill="#333" d="M490 22C212 20 43-104 37-315l281-29c11 104 65 146 186 146 109 0 214-47 222-128 5-51-29-84-119-104l-186-40c-195-42-289-149-277-303 14-232 242-359 510-359 274 2 415 119 430 308l-267 27c-11-76-56-120-162-120-98 0-203 45-211 128-6 50 24 83 118 104l194 40c196 41 291 138 279 289-15 238-265 378-545 378" id="am"/><path fill="#333" d="M776-1118l-37 229H530l-93 562c-12 72 14 104 85 104 23 0 74-7 97-13l5 225C555 8 488 16 426 16 201 16 99-97 132-301l98-588H76l37-229h155l44-266h300l-44 266h208" id="an"/><path fill="#333" d="M552 24C254 24 71-146 71-432c0-377 264-705 643-705 236 0 413 123 413 326 0 251-270 329-766 342-10 155 35 265 213 267 113 0 207-50 245-134l269 36C1015-105 814 24 552 24zM392-650c368-7 456-43 456-146 0-71-63-115-165-115-165 0-251 126-291 261zm251-610l-155-311h278l87 311H643" id="ao"/><path fill="#333" d="M35 0l186-1118h278l-23 203c87-158 215-220 340-220 150 0 232 87 258 250 89-176 240-250 390-250 212 0 348 148 307 391L1648 0h-301l118-707c21-127-40-177-131-177-124 0-216 90-235 206L986 0H696l119-715c18-110-37-169-130-169-113 0-217 83-240 218L335 0H35" id="ap"/><path fill="#333" d="M552 24C254 24 71-146 71-432c0-377 264-705 643-705 236 0 413 123 413 326 0 251-270 329-766 342-10 155 35 265 213 267 113 0 207-50 245-134l269 36C1015-105 814 24 552 24zM392-650c368-7 456-43 456-146 0-71-63-115-165-115-165 0-251 126-291 261" id="aq"/><g id="a"><use transform="matrix(0.010091145833333334,0,0,0.010091145833333334,0,0)" xlink:href="#ak"/><use transform="matrix(0.010091145833333334,0,0,0.010091145833333334,13.522135416666668,0)" xlink:href="#al"/><use transform="matrix(0.010091145833333334,0,0,0.010091145833333334,25.964518229166668,0)" xlink:href="#am"/><use transform="matrix(0.010091145833333334,0,0,0.010091145833333334,37.52897135416667,0)" xlink:href="#an"/><use transform="matrix(0.010091145833333334,0,0,0.010091145833333334,44.91569010416667,0)" xlink:href="#ao"/><use transform="matrix(0.010091145833333334,0,0,0.010091145833333334,57.10579427083334,0)" xlink:href="#ap"/><use transform="matrix(0.010091145833333334,0,0,0.010091145833333334,75.96614583333334,0)" xlink:href="#aq"/></g><path fill="#333" d="M-44 0l756-1490h400L1387 0h-327l-57-346H473L305 0H-44zm634-585h373c-37-212-56-397-81-666-107 262-185 453-292 666" id="ar"/><path fill="#333" d="M457 19C230 19 71-139 71-426c0-345 196-706 543-706 198 0 272 121 298 211h11l94-569h300L1070 0H775l32-179h-16C734-78 632 19 457 19zm100-241c213 0 324-249 324-452 0-136-60-218-181-218-213 0-322 248-322 449 0 134 58 221 179 221" id="as"/><path fill="#333" d="M36 0l185-1118h300L336 0H36zm359-1264c-91 0-153-69-139-154 14-84 99-154 190-154 89 0 153 67 139 154-14 86-100 154-190 154" id="at"/><path fill="#333" d="M441-638L335 0H35l186-1118h282l-30 213c87-148 206-227 368-227 241 0 374 169 330 431L1055 0H754l112-669c23-140-43-212-161-212-135 0-240 96-264 243" id="au"/><g id="b"><use transform="matrix(0.013020833333333334,0,0,0.013020833333333334,0,0)" xlink:href="#ar"/><use transform="matrix(0.013020833333333334,0,0,0.013020833333333334,19.296875,0)" xlink:href="#as"/><use transform="matrix(0.013020833333333334,0,0,0.013020833333333334,36.106770833333336,0)" xlink:href="#ap"/><use transform="matrix(0.013020833333333334,0,0,0.013020833333333334,60.442708333333336,0)" xlink:href="#at"/><use transform="matrix(0.013020833333333334,0,0,0.013020833333333334,67.68229166666667,0)" xlink:href="#au"/></g><path d="M180 0v-1490h270l367 940c28 72 75 218 110 339 35-117 81-264 110-339l362-940h271V0h-187c2-448-5-837 7-1287-157 497-311 829-483 1287H842C666-458 514-784 354-1284c12 438 5 843 7 1284H180" id="av"/><path d="M471 26C259 26 90-98 90-318c0-256 228-303 435-329 202-27 287-16 287-108 0-139-79-219-234-219-161 0-248 86-283 164l-173-57c86-203 278-265 451-265 150 0 419 46 419 395V0H815v-152h-12C765-73 660 26 471 26zm31-159c199 0 310-134 310-271v-155c-30 35-226 55-295 64-131 17-246 59-246 186 0 116 97 176 231 176" id="aw"/><path d="M338-670V0H158v-1118h173l1 207c72-158 192-221 342-221 226 0 378 139 378 422V0H872v-695c0-172-96-275-252-275-161 0-282 109-282 300" id="ax"/><path d="M611 442c-248 0-391-105-460-228l146-94c47 65 117 165 314 165 178 0 307-82 307-266v-224h-17C863-141 792-18 576-18c-268 0-472-195-472-546 0-346 197-568 476-568 216 0 288 133 326 193h17v-179h175V29c0 289-215 413-487 413zm-5-620c203 0 314-146 314-390 0-237-108-403-314-403-213 0-319 180-319 403 0 230 109 390 319 390" id="ay"/><path d="M628 24c-324 0-524-230-524-574 0-343 198-582 503-582 237 0 487 146 487 559v75H286c9 234 145 362 343 362 132 0 231-58 273-172l174 48C1024-91 857 24 628 24zM287-650h624c-17-190-120-322-304-322-192 0-309 151-320 322" id="az"/><g id="c"><use transform="matrix(0.015190972222222224,0,0,0.015190972222222224,0,0)" xlink:href="#av"/><use transform="matrix(0.015190972222222224,0,0,0.015190972222222224,28.103298611111114,0)" xlink:href="#aw"/><use transform="matrix(0.015190972222222224,0,0,0.015190972222222224,45.57291666666667,0)" xlink:href="#ax"/><use transform="matrix(0.015190972222222224,0,0,0.015190972222222224,63.953993055555564,0)" xlink:href="#aw"/><use transform="matrix(0.015190972222222224,0,0,0.015190972222222224,81.42361111111111,0)" xlink:href="#ay"/><use transform="matrix(0.015190972222222224,0,0,0.015190972222222224,100.50347222222223,0)" xlink:href="#az"/></g><path d="M537 14c-226 0-379-139-379-422v-710h180v695c0 172 97 275 253 275 160 0 281-109 281-300v-670h181V0H879v-209C806-46 684 14 537 14" id="aA"/><path d="M538 24C308 24 148-78 108-271l171-41c32 123 123 178 257 178 156 0 256-77 256-169 0-77-54-128-164-154l-186-44c-203-48-300-148-300-305 0-192 176-326 414-326 230 0 351 112 402 269l-163 42c-31-80-94-158-238-158-133 0-233 69-233 162 0 83 57 129 188 160l169 40c203 48 298 149 298 302 0 196-179 339-441 339" id="aB"/><path d="M158 0v-1118h174v172h12c41-113 157-188 290-188 26 0 70 2 91 3v181c-11-2-60-10-108-10-161 0-279 109-279 260V0H158" id="aC"/><g id="d"><use transform="matrix(0.015190972222222224,0,0,0.015190972222222224,0,0)" xlink:href="#aA"/><use transform="matrix(0.015190972222222224,0,0,0.015190972222222224,18.396267361111114,0)" xlink:href="#aB"/><use transform="matrix(0.015190972222222224,0,0,0.015190972222222224,34.81770833333334,0)" xlink:href="#az"/><use transform="matrix(0.015190972222222224,0,0,0.015190972222222224,52.95572916666668,0)" xlink:href="#aC"/><use transform="matrix(0.015190972222222224,0,0,0.015190972222222224,64.66796875000001,0)" xlink:href="#aB"/></g><path fill="#333" d="M707 20c-356 0-594-221-594-608 0-485 317-922 814-922 343 0 581 191 570 529h-309c-1-161-104-258-267-258-326 0-501 341-501 649 0 224 118 339 304 339 179 0 331-97 388-259h309c-81 277-347 530-714 530" id="aD"/><path fill="#333" d="M582-1490L335 0H35l247-1490h300" id="aE"/><g id="e"><use transform="matrix(0.013020833333333334,0,0,0.013020833333333334,0,0)" xlink:href="#aD"/><use transform="matrix(0.013020833333333334,0,0,0.013020833333333334,19.7265625,0)" xlink:href="#aE"/><use transform="matrix(0.013020833333333334,0,0,0.013020833333333334,26.953125,0)" xlink:href="#at"/><use transform="matrix(0.013020833333333334,0,0,0.013020833333333334,34.192708333333336,0)" xlink:href="#aq"/><use transform="matrix(0.013020833333333334,0,0,0.013020833333333334,49.921875,0)" xlink:href="#au"/><use transform="matrix(0.013020833333333334,0,0,0.013020833333333334,66.5234375,0)" xlink:href="#an"/></g><path fill="#333" d="M42 0l247-1490h581c338 0 498 208 449 502-48 295-279 501-622 501H428L347 0H42zm427-733h220c188 0 291-107 316-254 24-150-46-251-234-251H552" id="aF"/><path fill="#333" d="M36 0l185-1118h290l-31 195h12c83-166 210-238 399-200l-45 268c-197-55-375 37-405 219L336 0H36" id="aG"/><path fill="#333" d="M549 22C246 22 73-162 73-445c0-359 234-687 634-687 301 0 475 184 475 467 0 360-234 687-633 687zm10-236c223 0 322-274 322-459 0-134-61-223-185-223-223 0-322 271-322 458 0 133 61 224 185 224" id="aH"/><path fill="#333" d="M322-1118c41-343 300-502 650-420l-76 227c-27-5-65-8-112-8-109-7-152 86-162 201h242l-37 225H585L430 44c-50 320-279 458-614 393l63-234c134 31 225-1 248-143l157-953H76l37-225h209" id="aI"/><path fill="#333" d="M441 19C184 19 19-186 81-558c63-382 303-574 550-574 189 0 259 113 285 202h10l31-188h299L1071 0H776l29-179h-14C733-87 623 19 441 19zm133-241c154 0 263-135 296-336 34-204-31-334-185-334-159 0-264 139-296 334-33 197 29 336 185 336" id="aJ"/><g id="f"><use transform="matrix(0.013020833333333334,0,0,0.013020833333333334,0,0)" xlink:href="#aF"/><use transform="matrix(0.013020833333333334,0,0,0.013020833333333334,17.278645833333336,0)" xlink:href="#aG"/><use transform="matrix(0.013020833333333334,0,0,0.013020833333333334,27.5,0)" xlink:href="#aH"/><use transform="matrix(0.013020833333333334,0,0,0.013020833333333334,43.8671875,0)" xlink:href="#aI"/><use transform="matrix(0.013020833333333334,0,0,0.013020833333333334,54.21875,0)" xlink:href="#aq"/><use transform="matrix(0.013020833333333334,0,0,0.013020833333333334,69.94791666666667,0)" xlink:href="#am"/><use transform="matrix(0.013020833333333334,0,0,0.013020833333333334,84.86979166666667,0)" xlink:href="#am"/><use transform="matrix(0.013020833333333334,0,0,0.013020833333333334,99.79166666666667,0)" xlink:href="#at"/><use transform="matrix(0.013020833333333334,0,0,0.013020833333333334,107.03125,0)" xlink:href="#aH"/><use transform="matrix(0.013020833333333334,0,0,0.013020833333333334,123.3984375,0)" xlink:href="#au"/><use transform="matrix(0.013020833333333334,0,0,0.013020833333333334,140,0)" xlink:href="#aJ"/><use transform="matrix(0.013020833333333334,0,0,0.013020833333333334,156.82291666666666,0)" xlink:href="#aE"/></g><path d="M481 0L54-1118h197c107 314 236 620 325 951 87-331 217-637 324-951h197L670 0H481" id="aK"/><path d="M158 0v-1118h180V0H158zm91-1301c-68 0-125-53-125-119s57-119 125-119c69 0 126 53 126 119s-57 119-126 119" id="aL"/><path d="M613 24c-304 0-509-231-509-576 0-350 205-580 509-580 216 0 392 114 453 309l-173 49c-33-115-133-197-280-197-223 0-326 196-326 419 0 220 103 415 326 415 150 0 252-85 285-206l172 49C1010-95 832 24 613 24" id="aM"/><g id="g"><use transform="matrix(0.015190972222222224,0,0,0.015190972222222224,0,0)" xlink:href="#aB"/><use transform="matrix(0.015190972222222224,0,0,0.015190972222222224,16.421440972222225,0)" xlink:href="#az"/><use transform="matrix(0.015190972222222224,0,0,0.015190972222222224,34.55946180555556,0)" xlink:href="#aC"/><use transform="matrix(0.015190972222222224,0,0,0.015190972222222224,46.75781250000001,0)" xlink:href="#aK"/><use transform="matrix(0.015190972222222224,0,0,0.015190972222222224,64.24262152777779,0)" xlink:href="#aL"/><use transform="matrix(0.015190972222222224,0,0,0.015190972222222224,71.77734375000001,0)" xlink:href="#aM"/><use transform="matrix(0.015190972222222224,0,0,0.015190972222222224,89.55078125000001,0)" xlink:href="#az"/></g><path d="M598-1118v154H368v674c0 100 37 144 132 144 23 0 62-6 92-12L629-6c-37 13-88 20-134 20-193 0-307-107-307-290v-688H20v-154h168v-266h180v266h230" id="aN"/><path d="M613 24c-304 0-509-231-509-576 0-350 205-580 509-580 305 0 511 230 511 580 0 345-206 576-511 576zm0-161c226 0 329-195 329-415 0-222-103-419-329-419-223 0-326 196-326 419 0 220 103 415 326 415" id="aO"/><g id="h"><use transform="matrix(0.015190972222222224,0,0,0.015190972222222224,0,0)" xlink:href="#aM"/><use transform="matrix(0.015190972222222224,0,0,0.015190972222222224,18.077256944444446,0)" xlink:href="#aw"/><use transform="matrix(0.015190972222222224,0,0,0.015190972222222224,35.546875,0)" xlink:href="#aN"/><use transform="matrix(0.015190972222222224,0,0,0.015190972222222224,45.42100694444444,0)" xlink:href="#az"/><use transform="matrix(0.015190972222222224,0,0,0.015190972222222224,63.559027777777786,0)" xlink:href="#ay"/><use transform="matrix(0.015190972222222224,0,0,0.015190972222222224,82.63888888888889,0)" xlink:href="#aO"/><use transform="matrix(0.015190972222222224,0,0,0.015190972222222224,101.29340277777777,0)" xlink:href="#aC"/><use transform="matrix(0.015190972222222224,0,0,0.015190972222222224,113.49175347222221,0)" xlink:href="#aL"/><use transform="matrix(0.015190972222222224,0,0,0.015190972222222224,121.02647569444444,0)" xlink:href="#az"/><use transform="matrix(0.015190972222222224,0,0,0.015190972222222224,139.16449652777777,0)" xlink:href="#aB"/></g><path d="M158 0v-1118h175l1 205c55-151 181-225 313-225 147 0 245 90 285 228 53-141 190-228 352-228 194 0 352 125 352 384V0h-181v-749c0-161-105-225-225-225-151 0-243 103-243 244V0H807v-767c0-124-93-207-219-207-131 0-250 92-250 270V0H158" id="aP"/><path d="M338-1490V0H158v-1490h180" id="aQ"/><g id="i"><use transform="matrix(0.015190972222222224,0,0,0.015190972222222224,0,0)" xlink:href="#aP"/><use transform="matrix(0.015190972222222224,0,0,0.015190972222222224,27.252604166666668,0)" xlink:href="#aw"/><use transform="matrix(0.015190972222222224,0,0,0.015190972222222224,44.72222222222223,0)" xlink:href="#aN"/><use transform="matrix(0.015190972222222224,0,0,0.015190972222222224,54.59635416666667,0)" xlink:href="#az"/><use transform="matrix(0.015190972222222224,0,0,0.015190972222222224,72.734375,0)" xlink:href="#aC"/><use transform="matrix(0.015190972222222224,0,0,0.015190972222222224,84.93272569444444,0)" xlink:href="#aL"/><use transform="matrix(0.015190972222222224,0,0,0.015190972222222224,92.46744791666667,0)" xlink:href="#aw"/><use transform="matrix(0.015190972222222224,0,0,0.015190972222222224,109.93706597222223,0)" xlink:href="#aQ"/></g><path d="M577 24c-279 0-473-224-473-580 0-354 195-576 474-576 218 0 287 134 324 193h14v-551h180V0H922v-173h-20C865-111 790 24 577 24zm27-161c203 0 314-172 314-421 0-247-108-413-314-413-212 0-317 181-317 413 0 235 108 421 317 421" id="aR"/><g id="j"><use transform="matrix(0.015190972222222224,0,0,0.015190972222222224,0,0)" xlink:href="#aR"/><use transform="matrix(0.015190972222222224,0,0,0.015190972222222224,19.049479166666668,0)" xlink:href="#az"/><use transform="matrix(0.015190972222222224,0,0,0.015190972222222224,37.1875,0)" xlink:href="#aQ"/><use transform="matrix(0.015190972222222224,0,0,0.015190972222222224,44.72222222222222,0)" xlink:href="#az"/><use transform="matrix(0.015190972222222224,0,0,0.015190972222222224,62.860243055555564,0)" xlink:href="#aN"/><use transform="matrix(0.015190972222222224,0,0,0.015190972222222224,72.734375,0)" xlink:href="#az"/></g><path d="M409 0L70-1118h191c89 329 165 560 243 925 75-353 154-601 240-925h192c85 325 161 564 235 922 77-354 157-598 244-922h191L1267 0h-179c-86-307-176-590-250-913C763-588 675-308 588 0H409" id="aS"/><g id="k"><use transform="matrix(0.015190972222222224,0,0,0.015190972222222224,0,0)" xlink:href="#aC"/><use transform="matrix(0.015190972222222224,0,0,0.015190972222222224,11.195746527777779,0)" xlink:href="#az"/><use transform="matrix(0.015190972222222224,0,0,0.015190972222222224,28.726128472222225,0)" xlink:href="#aK"/><use transform="matrix(0.015190972222222224,0,0,0.015190972222222224,46.2109375,0)" xlink:href="#aL"/><use transform="matrix(0.015190972222222224,0,0,0.015190972222222224,53.74565972222222,0)" xlink:href="#az"/><use transform="matrix(0.015190972222222224,0,0,0.015190972222222224,71.32161458333334,0)" xlink:href="#aS"/><use transform="matrix(0.015190972222222224,0,0,0.015190972222222224,96.78168402777779,0)" xlink:href="#aB"/></g><path d="M789 20c-398 0-667-293-667-764 0-473 273-766 655-766 315 0 558 198 612 487h-196c-61-191-204-311-415-311-262 0-471 207-471 590 0 380 208 588 482 588 249 0 420-165 425-427H828v-166h572v163c0 370-256 606-611 606" id="aT"/><g id="l"><use transform="matrix(0.015190972222222224,0,0,0.015190972222222224,0,0)" xlink:href="#aT"/><use transform="matrix(0.015190972222222224,0,0,0.015190972222222224,23.211805555555557,0)" xlink:href="#az"/><use transform="matrix(0.015190972222222224,0,0,0.015190972222222224,41.34982638888889,0)" xlink:href="#ax"/><use transform="matrix(0.015190972222222224,0,0,0.015190972222222224,59.730902777777786,0)" xlink:href="#az"/><use transform="matrix(0.015190972222222224,0,0,0.015190972222222224,77.86892361111111,0)" xlink:href="#aC"/><use transform="matrix(0.015190972222222224,0,0,0.015190972222222224,89.58116319444444,0)" xlink:href="#aw"/><use transform="matrix(0.015190972222222224,0,0,0.015190972222222224,107.05078125,0)" xlink:href="#aN"/><use transform="matrix(0.015190972222222224,0,0,0.015190972222222224,116.92491319444444,0)" xlink:href="#az"/></g><g id="m"><use transform="matrix(0.015190972222222224,0,0,0.015190972222222224,0,0)" xlink:href="#aB"/><use transform="matrix(0.015190972222222224,0,0,0.015190972222222224,16.421440972222225,0)" xlink:href="#aN"/><use transform="matrix(0.015190972222222224,0,0,0.015190972222222224,26.751302083333336,0)" xlink:href="#aw"/><use transform="matrix(0.015190972222222224,0,0,0.015190972222222224,44.22092013888889,0)" xlink:href="#aN"/><use transform="matrix(0.015190972222222224,0,0,0.015190972222222224,54.398871527777786,0)" xlink:href="#aL"/><use transform="matrix(0.015190972222222224,0,0,0.015190972222222224,61.93359375000001,0)" xlink:href="#aB"/><use transform="matrix(0.015190972222222224,0,0,0.015190972222222224,78.35503472222223,0)" xlink:href="#aN"/><use transform="matrix(0.015190972222222224,0,0,0.015190972222222224,88.53298611111111,0)" xlink:href="#aL"/><use transform="matrix(0.015190972222222224,0,0,0.015190972222222224,96.06770833333334,0)" xlink:href="#aM"/><use transform="matrix(0.015190972222222224,0,0,0.015190972222222224,113.84114583333334,0)" xlink:href="#aB"/></g><path d="M763 24c-353 0-583-224-583-531v-983h190v968c0 214 149 370 393 370 243 0 391-156 391-370v-968h190v983c0 307-230 531-581 531" id="aU"/><path d="M158 418v-1536h174v179h20c37-59 106-193 324-193 279 0 474 222 474 576 0 356-194 580-473 580-213 0-288-135-325-197h-14v591H158zm492-555c209 0 317-186 317-421 0-232-105-413-317-413-206 0-314 166-314 413 0 249 111 421 314 421" id="aV"/><g id="n"><use transform="matrix(0.015190972222222224,0,0,0.015190972222222224,0,0)" xlink:href="#aU"/><use transform="matrix(0.015190972222222224,0,0,0.015190972222222224,23.151041666666668,0)" xlink:href="#aV"/><use transform="matrix(0.015190972222222224,0,0,0.015190972222222224,42.200520833333336,0)" xlink:href="#aR"/><use transform="matrix(0.015190972222222224,0,0,0.015190972222222224,61.25,0)" xlink:href="#aw"/><use transform="matrix(0.015190972222222224,0,0,0.015190972222222224,78.71961805555556,0)" xlink:href="#aN"/><use transform="matrix(0.015190972222222224,0,0,0.015190972222222224,88.59375,0)" xlink:href="#az"/></g><path d="M678-1118v154H420V0H240v-964H20v-154h220v-149c0-194 155-293 318-293 85 0 141 18 168 30l-50 154c-19-6-47-17-97-17-111 0-159 58-159 166v109h258" id="aW"/><g id="o"><use transform="matrix(0.015190972222222224,0,0,0.015190972222222224,0,0)" xlink:href="#aV"/><use transform="matrix(0.015190972222222224,0,0,0.015190972222222224,19.049479166666668,0)" xlink:href="#aC"/><use transform="matrix(0.015190972222222224,0,0,0.015190972222222224,30.245225694444443,0)" xlink:href="#aO"/><use transform="matrix(0.015190972222222224,0,0,0.015190972222222224,48.89973958333333,0)" xlink:href="#aW"/><use transform="matrix(0.015190972222222224,0,0,0.015190972222222224,60.41449652777777,0)" xlink:href="#aL"/><use transform="matrix(0.015190972222222224,0,0,0.015190972222222224,67.94921875,0)" xlink:href="#aQ"/><use transform="matrix(0.015190972222222224,0,0,0.015190972222222224,75.48394097222223,0)" xlink:href="#az"/></g><path d="M657 26c-323 0-524-166-541-416h195c15 169 171 246 346 246 202 0 356-106 356-265 5-203-294-238-475-293-239-73-380-191-380-389 0-252 224-419 512-419 294 0 499 171 508 396H992c-17-145-151-228-328-228-193 0-321 102-321 242 0 156 175 211 284 241l149 41c160 44 422 134 422 412 0 244-197 432-541 432" id="aX"/><g id="p"><use transform="matrix(0.015190972222222224,0,0,0.015190972222222224,0,0)" xlink:href="#aX"/><use transform="matrix(0.015190972222222224,0,0,0.015190972222222224,19.960937500000004,0)" xlink:href="#aA"/><use transform="matrix(0.015190972222222224,0,0,0.015190972222222224,38.357204861111114,0)" xlink:href="#aB"/><use transform="matrix(0.015190972222222224,0,0,0.015190972222222224,54.77864583333334,0)" xlink:href="#aV"/><use transform="matrix(0.015190972222222224,0,0,0.015190972222222224,73.82812500000001,0)" xlink:href="#az"/><use transform="matrix(0.015190972222222224,0,0,0.015190972222222224,91.96614583333334,0)" xlink:href="#ax"/><use transform="matrix(0.015190972222222224,0,0,0.015190972222222224,110.34722222222223,0)" xlink:href="#aR"/></g><g id="q"><use transform="matrix(0.015190972222222224,0,0,0.015190972222222224,0,0)" xlink:href="#aA"/><use transform="matrix(0.015190972222222224,0,0,0.015190972222222224,18.396267361111114,0)" xlink:href="#aB"/><use transform="matrix(0.015190972222222224,0,0,0.015190972222222224,34.81770833333334,0)" xlink:href="#az"/><use transform="matrix(0.015190972222222224,0,0,0.015190972222222224,52.95572916666668,0)" xlink:href="#aC"/></g><path d="M52 0l541-1490h220L1361 0h-200l-149-416H398L254 0H52zm404-582h497c-103-290-145-390-251-756-108 377-145 460-246 756" id="aY"/><g id="r"><use transform="matrix(0.015190972222222224,0,0,0.015190972222222224,0,0)" xlink:href="#aY"/><use transform="matrix(0.015190972222222224,0,0,0.015190972222222224,21.464843750000004,0)" xlink:href="#aM"/><use transform="matrix(0.015190972222222224,0,0,0.015190972222222224,39.23828125000001,0)" xlink:href="#aN"/><use transform="matrix(0.015190972222222224,0,0,0.015190972222222224,49.4162326388889,0)" xlink:href="#aL"/><use transform="matrix(0.015190972222222224,0,0,0.015190972222222224,56.95095486111112,0)" xlink:href="#aK"/><use transform="matrix(0.015190972222222224,0,0,0.015190972222222224,74.28385416666669,0)" xlink:href="#aw"/><use transform="matrix(0.015190972222222224,0,0,0.015190972222222224,91.75347222222224,0)" xlink:href="#aN"/><use transform="matrix(0.015190972222222224,0,0,0.015190972222222224,101.62760416666669,0)" xlink:href="#az"/></g><path d="M645 0H180v-1490h484c435 0 692 280 692 742 0 466-257 748-711 748zM370-168h263c363 0 539-218 539-580 0-358-176-574-521-574H370v1154" id="aZ"/><g id="s"><use transform="matrix(0.015190972222222224,0,0,0.015190972222222224,0,0)" xlink:href="#aZ"/><use transform="matrix(0.015190972222222224,0,0,0.015190972222222224,22.452256944444446,0)" xlink:href="#az"/><use transform="matrix(0.015190972222222224,0,0,0.015190972222222224,40.590277777777786,0)" xlink:href="#aQ"/><use transform="matrix(0.015190972222222224,0,0,0.015190972222222224,48.12500000000001,0)" xlink:href="#az"/><use transform="matrix(0.015190972222222224,0,0,0.015190972222222224,66.26302083333334,0)" xlink:href="#aN"/><use transform="matrix(0.015190972222222224,0,0,0.015190972222222224,76.13715277777779,0)" xlink:href="#az"/></g><g id="t"><use transform="matrix(0.015190972222222224,0,0,0.015190972222222224,0,0)" xlink:href="#aZ"/><use transform="matrix(0.015190972222222224,0,0,0.015190972222222224,22.452256944444446,0)" xlink:href="#az"/><use transform="matrix(0.015190972222222224,0,0,0.015190972222222224,40.590277777777786,0)" xlink:href="#aQ"/><use transform="matrix(0.015190972222222224,0,0,0.015190972222222224,48.12500000000001,0)" xlink:href="#az"/><use transform="matrix(0.015190972222222224,0,0,0.015190972222222224,66.26302083333334,0)" xlink:href="#aN"/><use transform="matrix(0.015190972222222224,0,0,0.015190972222222224,76.13715277777779,0)" xlink:href="#az"/></g><path d="M140 405l46-156c120 36 205 19 263-150l32-93L54-1118h197c107 313 237 620 324 950 87-331 219-637 326-950h196L606 167c-68 178-176 259-334 259-64 0-113-12-132-21" id="ba"/><g id="u"><use transform="matrix(0.015190972222222224,0,0,0.015190972222222224,0,0)" xlink:href="#aM"/><use transform="matrix(0.015190972222222224,0,0,0.015190972222222224,18.077256944444446,0)" xlink:href="#aw"/><use transform="matrix(0.015190972222222224,0,0,0.015190972222222224,35.546875,0)" xlink:href="#aN"/><use transform="matrix(0.015190972222222224,0,0,0.015190972222222224,45.42100694444444,0)" xlink:href="#az"/><use transform="matrix(0.015190972222222224,0,0,0.015190972222222224,63.559027777777786,0)" xlink:href="#ay"/><use transform="matrix(0.015190972222222224,0,0,0.015190972222222224,82.63888888888889,0)" xlink:href="#aO"/><use transform="matrix(0.015190972222222224,0,0,0.015190972222222224,101.29340277777777,0)" xlink:href="#aC"/><use transform="matrix(0.015190972222222224,0,0,0.015190972222222224,113.49175347222221,0)" xlink:href="#ba"/></g><g id="v"><use transform="matrix(0.015190972222222224,0,0,0.015190972222222224,0,0)" xlink:href="#aY"/><use transform="matrix(0.015190972222222224,0,0,0.015190972222222224,21.464843750000004,0)" xlink:href="#aR"/><use transform="matrix(0.015190972222222224,0,0,0.015190972222222224,40.51432291666667,0)" xlink:href="#aR"/></g><path d="M180 0v-1490h908v168H370v486h669v168H370v500h727V0H180" id="bb"/><g id="w"><use transform="matrix(0.015190972222222224,0,0,0.015190972222222224,0,0)" xlink:href="#bb"/><use transform="matrix(0.015190972222222224,0,0,0.015190972222222224,18.700086805555557,0)" xlink:href="#aR"/><use transform="matrix(0.015190972222222224,0,0,0.015190972222222224,37.74956597222223,0)" xlink:href="#aL"/><use transform="matrix(0.015190972222222224,0,0,0.015190972222222224,45.28428819444445,0)" xlink:href="#aN"/><use transform="matrix(0.015190972222222224,0,0,0.015190972222222224,55.1584201388889,0)" xlink:href="#az"/></g><g id="x"><use transform="matrix(0.015190972222222224,0,0,0.015190972222222224,0,0)" xlink:href="#aY"/><use transform="matrix(0.015190972222222224,0,0,0.015190972222222224,21.464843750000004,0)" xlink:href="#aM"/><use transform="matrix(0.015190972222222224,0,0,0.015190972222222224,39.23828125000001,0)" xlink:href="#aN"/><use transform="matrix(0.015190972222222224,0,0,0.015190972222222224,49.4162326388889,0)" xlink:href="#aL"/><use transform="matrix(0.015190972222222224,0,0,0.015190972222222224,56.95095486111112,0)" xlink:href="#aK"/><use transform="matrix(0.015190972222222224,0,0,0.015190972222222224,74.28385416666669,0)" xlink:href="#aw"/><use transform="matrix(0.015190972222222224,0,0,0.015190972222222224,91.75347222222224,0)" xlink:href="#aN"/><use transform="matrix(0.015190972222222224,0,0,0.015190972222222224,101.62760416666669,0)" xlink:href="#az"/><use transform="matrix(0.015190972222222224,0,0,0.015190972222222224,119.76562500000003,0)" xlink:href="#aR"/></g><g id="y"><use transform="matrix(0.015190972222222224,0,0,0.015190972222222224,0,0)" xlink:href="#aZ"/><use transform="matrix(0.015190972222222224,0,0,0.015190972222222224,22.452256944444446,0)" xlink:href="#az"/><use transform="matrix(0.015190972222222224,0,0,0.015190972222222224,40.590277777777786,0)" xlink:href="#aB"/><use transform="matrix(0.015190972222222224,0,0,0.015190972222222224,57.011718750000014,0)" xlink:href="#aw"/><use transform="matrix(0.015190972222222224,0,0,0.015190972222222224,74.48133680555557,0)" xlink:href="#aM"/><use transform="matrix(0.015190972222222224,0,0,0.015190972222222224,92.25477430555557,0)" xlink:href="#aN"/><use transform="matrix(0.015190972222222224,0,0,0.015190972222222224,102.43272569444446,0)" xlink:href="#aL"/><use transform="matrix(0.015190972222222224,0,0,0.015190972222222224,109.96744791666669,0)" xlink:href="#aK"/><use transform="matrix(0.015190972222222224,0,0,0.015190972222222224,127.30034722222223,0)" xlink:href="#aw"/><use transform="matrix(0.015190972222222224,0,0,0.015190972222222224,144.76996527777777,0)" xlink:href="#aN"/><use transform="matrix(0.015190972222222224,0,0,0.015190972222222224,154.6440972222222,0)" xlink:href="#az"/><use transform="matrix(0.015190972222222224,0,0,0.015190972222222224,172.78211805555554,0)" xlink:href="#aR"/></g><g id="z"><use transform="matrix(0.015190972222222224,0,0,0.015190972222222224,0,0)" xlink:href="#aB"/><use transform="matrix(0.015190972222222224,0,0,0.015190972222222224,16.421440972222225,0)" xlink:href="#az"/><use transform="matrix(0.015190972222222224,0,0,0.015190972222222224,34.55946180555556,0)" xlink:href="#aC"/><use transform="matrix(0.015190972222222224,0,0,0.015190972222222224,46.75781250000001,0)" xlink:href="#aK"/><use transform="matrix(0.015190972222222224,0,0,0.015190972222222224,64.24262152777779,0)" xlink:href="#aL"/><use transform="matrix(0.015190972222222224,0,0,0.015190972222222224,71.77734375000001,0)" xlink:href="#aM"/><use transform="matrix(0.015190972222222224,0,0,0.015190972222222224,89.55078125000001,0)" xlink:href="#az"/></g><g id="A"><use transform="matrix(0.015190972222222224,0,0,0.015190972222222224,0,0)" xlink:href="#aP"/><use transform="matrix(0.015190972222222224,0,0,0.015190972222222224,27.252604166666668,0)" xlink:href="#az"/><use transform="matrix(0.015190972222222224,0,0,0.015190972222222224,45.390625,0)" xlink:href="#ax"/><use transform="matrix(0.015190972222222224,0,0,0.015190972222222224,63.77170138888888,0)" xlink:href="#aw"/><use transform="matrix(0.015190972222222224,0,0,0.015190972222222224,81.24131944444444,0)" xlink:href="#ay"/><use transform="matrix(0.015190972222222224,0,0,0.015190972222222224,100.32118055555556,0)" xlink:href="#az"/></g><path d="M1096 418H916v-591h-14C865-111 790 24 577 24c-279 0-473-224-473-580 0-354 195-576 474-576 218 0 287 134 324 193h20v-179h174V418zM604-137c203 0 314-172 314-421 0-247-108-413-314-413-212 0-317 181-317 413 0 235 108 421 317 421" id="bc"/><g id="B"><use transform="matrix(0.015190972222222224,0,0,0.015190972222222224,0,0)" xlink:href="#aC"/><use transform="matrix(0.015190972222222224,0,0,0.015190972222222224,11.195746527777779,0)" xlink:href="#az"/><use transform="matrix(0.015190972222222224,0,0,0.015190972222222224,29.333767361111114,0)" xlink:href="#bc"/><use transform="matrix(0.015190972222222224,0,0,0.015190972222222224,48.383246527777786,0)" xlink:href="#aA"/><use transform="matrix(0.015190972222222224,0,0,0.015190972222222224,66.7795138888889,0)" xlink:href="#az"/><use transform="matrix(0.015190972222222224,0,0,0.015190972222222224,84.91753472222223,0)" xlink:href="#aB"/><use transform="matrix(0.015190972222222224,0,0,0.015190972222222224,101.33897569444446,0)" xlink:href="#aN"/></g><g id="C"><use transform="matrix(0.015190972222222224,0,0,0.015190972222222224,0,0)" xlink:href="#aY"/><use transform="matrix(0.015190972222222224,0,0,0.015190972222222224,21.464843750000004,0)" xlink:href="#aM"/><use transform="matrix(0.015190972222222224,0,0,0.015190972222222224,39.23828125000001,0)" xlink:href="#aM"/><use transform="matrix(0.015190972222222224,0,0,0.015190972222222224,57.011718750000014,0)" xlink:href="#az"/><use transform="matrix(0.015190972222222224,0,0,0.015190972222222224,75.14973958333334,0)" xlink:href="#aV"/><use transform="matrix(0.015190972222222224,0,0,0.015190972222222224,94.19921875000001,0)" xlink:href="#aN"/></g><g id="D"><use transform="matrix(0.015190972222222224,0,0,0.015190972222222224,0,0)" xlink:href="#aZ"/><use transform="matrix(0.015190972222222224,0,0,0.015190972222222224,22.452256944444446,0)" xlink:href="#az"/><use transform="matrix(0.015190972222222224,0,0,0.015190972222222224,40.590277777777786,0)" xlink:href="#aM"/><use transform="matrix(0.015190972222222224,0,0,0.015190972222222224,58.363715277777786,0)" xlink:href="#aQ"/><use transform="matrix(0.015190972222222224,0,0,0.015190972222222224,65.89843750000001,0)" xlink:href="#aL"/><use transform="matrix(0.015190972222222224,0,0,0.015190972222222224,73.43315972222224,0)" xlink:href="#ax"/><use transform="matrix(0.015190972222222224,0,0,0.015190972222222224,91.81423611111113,0)" xlink:href="#az"/></g><path d="M783 20c-382 0-661-292-661-764 0-473 279-766 661-766 302 0 548 182 601 489h-190c-42-204-217-313-411-313-268 0-476 208-476 590 0 381 209 588 476 588 195 0 369-110 411-313h190c-52 303-296 489-601 489" id="bd"/><g id="E"><use transform="matrix(0.015190972222222224,0,0,0.015190972222222224,0,0)" xlink:href="#bd"/><use transform="matrix(0.015190972222222224,0,0,0.015190972222222224,22.725694444444446,0)" xlink:href="#aO"/><use transform="matrix(0.015190972222222224,0,0,0.015190972222222224,41.380208333333336,0)" xlink:href="#aP"/><use transform="matrix(0.015190972222222224,0,0,0.015190972222222224,68.6328125,0)" xlink:href="#aV"/><use transform="matrix(0.015190972222222224,0,0,0.015190972222222224,87.68229166666667,0)" xlink:href="#aQ"/><use transform="matrix(0.015190972222222224,0,0,0.015190972222222224,95.2170138888889,0)" xlink:href="#az"/><use transform="matrix(0.015190972222222224,0,0,0.015190972222222224,113.35503472222223,0)" xlink:href="#aN"/><use transform="matrix(0.015190972222222224,0,0,0.015190972222222224,123.22916666666667,0)" xlink:href="#az"/></g><g id="F"><use transform="matrix(0.015190972222222224,0,0,0.015190972222222224,0,0)" xlink:href="#av"/><use transform="matrix(0.015190972222222224,0,0,0.015190972222222224,28.103298611111114,0)" xlink:href="#aw"/><use transform="matrix(0.015190972222222224,0,0,0.015190972222222224,45.57291666666667,0)" xlink:href="#aN"/><use transform="matrix(0.015190972222222224,0,0,0.015190972222222224,55.447048611111114,0)" xlink:href="#az"/><use transform="matrix(0.015190972222222224,0,0,0.015190972222222224,73.58506944444446,0)" xlink:href="#aC"/><use transform="matrix(0.015190972222222224,0,0,0.015190972222222224,85.7834201388889,0)" xlink:href="#aL"/><use transform="matrix(0.015190972222222224,0,0,0.015190972222222224,93.31814236111113,0)" xlink:href="#aw"/><use transform="matrix(0.015190972222222224,0,0,0.015190972222222224,110.78776041666669,0)" xlink:href="#aQ"/><use transform="matrix(0.015190972222222224,0,0,0.015190972222222224,118.32248263888891,0)" xlink:href="#aB"/></g><path d="M180 0v-1490h528c311 0 458 177 458 395 0 191-114 278-244 313v14c139 9 302 137 302 371 0 225-148 397-499 397H180zm190-168h350c232 0 321-102 321-231 0-149-120-277-311-277H370v508zm0-668h328c160 0 286-101 286-255 0-129-87-231-280-231H370v486" id="be"/><g id="G"><use transform="matrix(0.015190972222222224,0,0,0.015190972222222224,0,0)" xlink:href="#be"/><use transform="matrix(0.015190972222222224,0,0,0.015190972222222224,20.35590277777778,0)" xlink:href="#aC"/><use transform="matrix(0.015190972222222224,0,0,0.015190972222222224,31.551649305555557,0)" xlink:href="#aO"/><use transform="matrix(0.015190972222222224,0,0,0.015190972222222224,49.64409722222223,0)" xlink:href="#aS"/><use transform="matrix(0.015190972222222224,0,0,0.015190972222222224,75.10416666666667,0)" xlink:href="#aB"/><use transform="matrix(0.015190972222222224,0,0,0.015190972222222224,91.5256076388889,0)" xlink:href="#az"/></g><g id="H"><use transform="matrix(0.015190972222222224,0,0,0.015190972222222224,0,0)" xlink:href="#aP"/><use transform="matrix(0.015190972222222224,0,0,0.015190972222222224,27.252604166666668,0)" xlink:href="#aw"/><use transform="matrix(0.015190972222222224,0,0,0.015190972222222224,44.72222222222223,0)" xlink:href="#aN"/><use transform="matrix(0.015190972222222224,0,0,0.015190972222222224,54.59635416666667,0)" xlink:href="#az"/><use transform="matrix(0.015190972222222224,0,0,0.015190972222222224,72.734375,0)" xlink:href="#aC"/><use transform="matrix(0.015190972222222224,0,0,0.015190972222222224,84.93272569444444,0)" xlink:href="#aL"/><use transform="matrix(0.015190972222222224,0,0,0.015190972222222224,92.46744791666667,0)" xlink:href="#aw"/><use transform="matrix(0.015190972222222224,0,0,0.015190972222222224,109.93706597222223,0)" xlink:href="#aQ"/></g><path d="M158 0v-1490h180v865h22l478-493h223L593-638 1096 0H865L456-523 338-412V0H158" id="bf"/><g id="I"><use transform="matrix(0.015190972222222224,0,0,0.015190972222222224,0,0)" xlink:href="#aP"/><use transform="matrix(0.015190972222222224,0,0,0.015190972222222224,27.252604166666668,0)" xlink:href="#aw"/><use transform="matrix(0.015190972222222224,0,0,0.015190972222222224,44.72222222222223,0)" xlink:href="#aC"/><use transform="matrix(0.015190972222222224,0,0,0.015190972222222224,56.92057291666668,0)" xlink:href="#bf"/><use transform="matrix(0.015190972222222224,0,0,0.015190972222222224,73.29644097222223,0)" xlink:href="#az"/><use transform="matrix(0.015190972222222224,0,0,0.015190972222222224,91.43446180555557,0)" xlink:href="#aN"/><use transform="matrix(0.015190972222222224,0,0,0.015190972222222224,101.61241319444446,0)" xlink:href="#aV"/><use transform="matrix(0.015190972222222224,0,0,0.015190972222222224,120.66189236111113,0)" xlink:href="#aQ"/><use transform="matrix(0.015190972222222224,0,0,0.015190972222222224,128.19661458333334,0)" xlink:href="#aw"/><use transform="matrix(0.015190972222222224,0,0,0.015190972222222224,145.6662326388889,0)" xlink:href="#aM"/><use transform="matrix(0.015190972222222224,0,0,0.015190972222222224,163.4396701388889,0)" xlink:href="#az"/></g><path d="M180 0v-1490h510c348 0 508 209 508 474 0 266-160 477-507 477H370V0H180zm190-706h312c236 0 327-133 327-310 0-176-91-307-329-307H370v617" id="bg"/><path d="M338-670V0H158v-1490h180v566c73-149 190-208 336-208 226 0 379 139 379 422V0H872v-695c0-172-96-275-252-275-161 0-282 109-282 300" id="bh"/><g id="J"><use transform="matrix(0.015190972222222224,0,0,0.015190972222222224,0,0)" xlink:href="#bg"/><use transform="matrix(0.015190972222222224,0,0,0.015190972222222224,19.869791666666668,0)" xlink:href="#aA"/><use transform="matrix(0.015190972222222224,0,0,0.015190972222222224,38.266059027777786,0)" xlink:href="#aC"/><use transform="matrix(0.015190972222222224,0,0,0.015190972222222224,49.461805555555564,0)" xlink:href="#aM"/><use transform="matrix(0.015190972222222224,0,0,0.015190972222222224,67.23524305555557,0)" xlink:href="#bh"/><use transform="matrix(0.015190972222222224,0,0,0.015190972222222224,85.63151041666669,0)" xlink:href="#aw"/><use transform="matrix(0.015190972222222224,0,0,0.015190972222222224,103.10112847222224,0)" xlink:href="#aB"/><use transform="matrix(0.015190972222222224,0,0,0.015190972222222224,119.52256944444447,0)" xlink:href="#az"/></g><g id="K"><use transform="matrix(0.015190972222222224,0,0,0.015190972222222224,0,0)" xlink:href="#aP"/><use transform="matrix(0.015190972222222224,0,0,0.015190972222222224,27.252604166666668,0)" xlink:href="#aw"/><use transform="matrix(0.015190972222222224,0,0,0.015190972222222224,44.72222222222223,0)" xlink:href="#aN"/><use transform="matrix(0.015190972222222224,0,0,0.015190972222222224,54.59635416666667,0)" xlink:href="#az"/><use transform="matrix(0.015190972222222224,0,0,0.015190972222222224,72.734375,0)" xlink:href="#aC"/><use transform="matrix(0.015190972222222224,0,0,0.015190972222222224,84.93272569444444,0)" xlink:href="#aL"/><use transform="matrix(0.015190972222222224,0,0,0.015190972222222224,92.46744791666667,0)" xlink:href="#aw"/><use transform="matrix(0.015190972222222224,0,0,0.015190972222222224,109.93706597222223,0)" xlink:href="#aQ"/><use transform="matrix(0.015190972222222224,0,0,0.015190972222222224,117.47178819444446,0)" xlink:href="#aB"/></g><g id="L"><use transform="matrix(0.015190972222222224,0,0,0.015190972222222224,0,0)" xlink:href="#bg"/><use transform="matrix(0.015190972222222224,0,0,0.015190972222222224,19.869791666666668,0)" xlink:href="#aA"/><use transform="matrix(0.015190972222222224,0,0,0.015190972222222224,38.266059027777786,0)" xlink:href="#aC"/><use transform="matrix(0.015190972222222224,0,0,0.015190972222222224,49.461805555555564,0)" xlink:href="#aM"/><use transform="matrix(0.015190972222222224,0,0,0.015190972222222224,67.23524305555557,0)" xlink:href="#bh"/><use transform="matrix(0.015190972222222224,0,0,0.015190972222222224,85.63151041666669,0)" xlink:href="#aw"/><use transform="matrix(0.015190972222222224,0,0,0.015190972222222224,103.10112847222224,0)" xlink:href="#aB"/><use transform="matrix(0.015190972222222224,0,0,0.015190972222222224,119.52256944444447,0)" xlink:href="#az"/></g><g id="M"><use transform="matrix(0.015190972222222224,0,0,0.015190972222222224,0,0)" xlink:href="#aS"/><use transform="matrix(0.015190972222222224,0,0,0.015190972222222224,25.460069444444446,0)" xlink:href="#aL"/><use transform="matrix(0.015190972222222224,0,0,0.015190972222222224,32.99479166666667,0)" xlink:href="#aN"/><use transform="matrix(0.015190972222222224,0,0,0.015190972222222224,43.17274305555556,0)" xlink:href="#bh"/></g><g id="N"><use transform="matrix(0.015190972222222224,0,0,0.015190972222222224,0,0)" xlink:href="#aM"/><use transform="matrix(0.015190972222222224,0,0,0.015190972222222224,18.077256944444446,0)" xlink:href="#aw"/><use transform="matrix(0.015190972222222224,0,0,0.015190972222222224,35.546875,0)" xlink:href="#aC"/><use transform="matrix(0.015190972222222224,0,0,0.015190972222222224,47.74522569444445,0)" xlink:href="#aN"/></g><g id="O"><use transform="matrix(0.015190972222222224,0,0,0.015190972222222224,0,0)" xlink:href="#aS"/><use transform="matrix(0.015190972222222224,0,0,0.015190972222222224,25.460069444444446,0)" xlink:href="#aL"/><use transform="matrix(0.015190972222222224,0,0,0.015190972222222224,32.99479166666667,0)" xlink:href="#aN"/><use transform="matrix(0.015190972222222224,0,0,0.015190972222222224,43.17274305555556,0)" xlink:href="#bh"/></g><g id="P"><use transform="matrix(0.015190972222222224,0,0,0.015190972222222224,0,0)" xlink:href="#aV"/><use transform="matrix(0.015190972222222224,0,0,0.015190972222222224,19.049479166666668,0)" xlink:href="#aO"/><use transform="matrix(0.015190972222222224,0,0,0.015190972222222224,37.70399305555556,0)" xlink:href="#aL"/><use transform="matrix(0.015190972222222224,0,0,0.015190972222222224,45.23871527777778,0)" xlink:href="#ax"/><use transform="matrix(0.015190972222222224,0,0,0.015190972222222224,63.61979166666667,0)" xlink:href="#aN"/><use transform="matrix(0.015190972222222224,0,0,0.015190972222222224,73.49392361111111,0)" xlink:href="#aB"/></g><path fill="#333" d="M75-1237v-253h1217v253H837V0H531v-1237H75" id="bi"/><path fill="#333" d="M633 22C291 22 81-200 81-553c0-345 210-579 537-579 292 0 525 185 525 567v84H378c7 183 109 277 260 277 105 0 184-46 216-132l272 51C1071-99 893 22 633 22zM380-669h474c-15-146-94-237-233-237-143 0-229 99-241 237" id="bj"/><path fill="#333" d="M42 0l360-574-338-544h324c72 124 151 261 209 394 58-134 140-271 215-394h318L785-570 1146 0H824c-79-136-169-280-234-425C528-278 439-134 360 0H42" id="bk"/><path fill="#333" d="M683-1118v229H474v562c0 71 29 104 102 104 23 0 73-7 95-13l43 225C647 9 580 16 520 16 296 16 174-96 174-301v-588H20v-229h154v-266h300v266h209" id="bl"/><g id="Q"><use transform="matrix(0.0010850694444444445,0,0,0.0010850694444444445,0,0)" xlink:href="#bi"/><use transform="matrix(0.0010850694444444445,0,0,0.0010850694444444445,1.3096788194444444,0)" xlink:href="#bj"/><use transform="matrix(0.0010850694444444445,0,0,0.0010850694444444445,2.5889756944444446,0)" xlink:href="#bk"/><use transform="matrix(0.0010850694444444445,0,0,0.0010850694444444445,3.9095052083333335,0)" xlink:href="#bl"/><use transform="matrix(0.0010850694444444445,0,0,0.0010850694444444445,4.701605902777778,0)" xlink:href="#bj"/></g><path d="M98-1322v-168h1126v168H757V0H567v-1322H98" id="bm"/><g id="R"><use transform="matrix(0.015190972222222224,0,0,0.015190972222222224,0,0)" xlink:href="#bm"/><use transform="matrix(0.015190972222222224,0,0,0.015190972222222224,18.3203125,0)" xlink:href="#aC"/><use transform="matrix(0.015190972222222224,0,0,0.015190972222222224,30.032552083333336,0)" xlink:href="#aw"/><use transform="matrix(0.015190972222222224,0,0,0.015190972222222224,47.50217013888889,0)" xlink:href="#aM"/><use transform="matrix(0.015190972222222224,0,0,0.015190972222222224,65.2756076388889,0)" xlink:href="#bf"/></g><g id="S"><use transform="matrix(0.015190972222222224,0,0,0.015190972222222224,0,0)" xlink:href="#aP"/><use transform="matrix(0.015190972222222224,0,0,0.015190972222222224,27.252604166666668,0)" xlink:href="#aw"/><use transform="matrix(0.015190972222222224,0,0,0.015190972222222224,44.72222222222223,0)" xlink:href="#aN"/><use transform="matrix(0.015190972222222224,0,0,0.015190972222222224,54.59635416666667,0)" xlink:href="#az"/><use transform="matrix(0.015190972222222224,0,0,0.015190972222222224,72.734375,0)" xlink:href="#aC"/><use transform="matrix(0.015190972222222224,0,0,0.015190972222222224,84.93272569444444,0)" xlink:href="#aL"/><use transform="matrix(0.015190972222222224,0,0,0.015190972222222224,92.46744791666667,0)" xlink:href="#aw"/><use transform="matrix(0.015190972222222224,0,0,0.015190972222222224,109.93706597222223,0)" xlink:href="#aQ"/><use transform="matrix(0.015190972222222224,0,0,0.015190972222222224,117.47178819444446,0)" xlink:href="#aB"/></g><g id="T"><use transform="matrix(0.015190972222222224,0,0,0.015190972222222224,0,0)" xlink:href="#aV"/><use transform="matrix(0.015190972222222224,0,0,0.015190972222222224,19.049479166666668,0)" xlink:href="#aA"/><use transform="matrix(0.015190972222222224,0,0,0.015190972222222224,37.445746527777786,0)" xlink:href="#aC"/><use transform="matrix(0.015190972222222224,0,0,0.015190972222222224,48.641493055555564,0)" xlink:href="#aM"/><use transform="matrix(0.015190972222222224,0,0,0.015190972222222224,66.41493055555557,0)" xlink:href="#bh"/><use transform="matrix(0.015190972222222224,0,0,0.015190972222222224,84.81119791666669,0)" xlink:href="#aw"/><use transform="matrix(0.015190972222222224,0,0,0.015190972222222224,102.28081597222224,0)" xlink:href="#aB"/><use transform="matrix(0.015190972222222224,0,0,0.015190972222222224,118.70225694444447,0)" xlink:href="#az"/></g><g id="U"><use transform="matrix(0.015190972222222224,0,0,0.015190972222222224,0,0)" xlink:href="#bd"/><use transform="matrix(0.015190972222222224,0,0,0.015190972222222224,22.725694444444446,0)" xlink:href="#aO"/><use transform="matrix(0.015190972222222224,0,0,0.015190972222222224,41.380208333333336,0)" xlink:href="#aP"/><use transform="matrix(0.015190972222222224,0,0,0.015190972222222224,68.6328125,0)" xlink:href="#aP"/><use transform="matrix(0.015190972222222224,0,0,0.015190972222222224,95.88541666666667,0)" xlink:href="#aA"/><use transform="matrix(0.015190972222222224,0,0,0.015190972222222224,114.28168402777779,0)" xlink:href="#ax"/><use transform="matrix(0.015190972222222224,0,0,0.015190972222222224,132.66276041666669,0)" xlink:href="#aL"/><use transform="matrix(0.015190972222222224,0,0,0.015190972222222224,140.1974826388889,0)" xlink:href="#aM"/><use transform="matrix(0.015190972222222224,0,0,0.015190972222222224,158.27473958333337,0)" xlink:href="#aw"/><use transform="matrix(0.015190972222222224,0,0,0.015190972222222224,175.7443576388889,0)" xlink:href="#aN"/><use transform="matrix(0.015190972222222224,0,0,0.015190972222222224,185.61848958333334,0)" xlink:href="#az"/></g><g id="V"><use transform="matrix(0.015190972222222224,0,0,0.015190972222222224,0,0)" xlink:href="#aM"/><use transform="matrix(0.015190972222222224,0,0,0.015190972222222224,17.773437500000004,0)" xlink:href="#aQ"/><use transform="matrix(0.015190972222222224,0,0,0.015190972222222224,25.30815972222223,0)" xlink:href="#aL"/><use transform="matrix(0.015190972222222224,0,0,0.015190972222222224,32.84288194444445,0)" xlink:href="#az"/><use transform="matrix(0.015190972222222224,0,0,0.015190972222222224,50.980902777777786,0)" xlink:href="#ax"/><use transform="matrix(0.015190972222222224,0,0,0.015190972222222224,69.36197916666667,0)" xlink:href="#aN"/><use transform="matrix(0.015190972222222224,0,0,0.015190972222222224,79.23611111111111,0)" xlink:href="#aB"/></g><path d="M600 0L52-1490h200c166 485 304 806 458 1336 156-533 285-846 449-1336h202L819 0H600" id="bn"/><g id="W"><use transform="matrix(0.015190972222222224,0,0,0.015190972222222224,0,0)" xlink:href="#bn"/><use transform="matrix(0.015190972222222224,0,0,0.015190972222222224,21.464843750000004,0)" xlink:href="#aL"/><use transform="matrix(0.015190972222222224,0,0,0.015190972222222224,28.99956597222223,0)" xlink:href="#az"/><use transform="matrix(0.015190972222222224,0,0,0.015190972222222224,46.57552083333334,0)" xlink:href="#aS"/></g><g id="X"><use transform="matrix(0.015190972222222224,0,0,0.015190972222222224,0,0)" xlink:href="#aC"/><use transform="matrix(0.015190972222222224,0,0,0.015190972222222224,11.195746527777779,0)" xlink:href="#az"/><use transform="matrix(0.015190972222222224,0,0,0.015190972222222224,29.333767361111114,0)" xlink:href="#aM"/><use transform="matrix(0.015190972222222224,0,0,0.015190972222222224,47.107204861111114,0)" xlink:href="#az"/><use transform="matrix(0.015190972222222224,0,0,0.015190972222222224,65.24522569444446,0)" xlink:href="#aL"/><use transform="matrix(0.015190972222222224,0,0,0.015190972222222224,72.77994791666669,0)" xlink:href="#aK"/><use transform="matrix(0.015190972222222224,0,0,0.015190972222222224,89.65711805555557,0)" xlink:href="#az"/><use transform="matrix(0.015190972222222224,0,0,0.015190972222222224,107.79513888888891,0)" xlink:href="#aR"/></g><g id="Y"><use transform="matrix(0.015190972222222224,0,0,0.015190972222222224,0,0)" xlink:href="#aC"/><use transform="matrix(0.015190972222222224,0,0,0.015190972222222224,11.195746527777779,0)" xlink:href="#az"/><use transform="matrix(0.015190972222222224,0,0,0.015190972222222224,28.726128472222225,0)" xlink:href="#aK"/><use transform="matrix(0.015190972222222224,0,0,0.015190972222222224,46.2109375,0)" xlink:href="#aL"/><use transform="matrix(0.015190972222222224,0,0,0.015190972222222224,53.74565972222222,0)" xlink:href="#az"/><use transform="matrix(0.015190972222222224,0,0,0.015190972222222224,71.32161458333334,0)" xlink:href="#aS"/></g><path d="M180 0v-1490h510c348 0 508 194 508 460 0 198-88 351-276 417L1256 0h-220L726-579c-117 2-238 0-356 1V0H180zm190-747h312c235 0 327-108 327-283 0-177-92-293-329-293H370v576" id="bo"/><g id="Z"><use transform="matrix(0.015190972222222224,0,0,0.015190972222222224,0,0)" xlink:href="#bo"/><use transform="matrix(0.015190972222222224,0,0,0.015190972222222224,19.56597222222222,0)" xlink:href="#az"/><use transform="matrix(0.015190972222222224,0,0,0.015190972222222224,37.70399305555556,0)" xlink:href="#bc"/><use transform="matrix(0.015190972222222224,0,0,0.015190972222222224,56.75347222222223,0)" xlink:href="#aA"/><use transform="matrix(0.015190972222222224,0,0,0.015190972222222224,75.14973958333334,0)" xlink:href="#az"/><use transform="matrix(0.015190972222222224,0,0,0.015190972222222224,93.28776041666669,0)" xlink:href="#aB"/><use transform="matrix(0.015190972222222224,0,0,0.015190972222222224,109.70920138888891,0)" xlink:href="#aN"/></g><g id="aa"><use transform="matrix(0.015190972222222224,0,0,0.015190972222222224,0,0)" xlink:href="#aB"/><use transform="matrix(0.015190972222222224,0,0,0.015190972222222224,16.421440972222225,0)" xlink:href="#az"/><use transform="matrix(0.015190972222222224,0,0,0.015190972222222224,34.55946180555556,0)" xlink:href="#aC"/><use transform="matrix(0.015190972222222224,0,0,0.015190972222222224,46.75781250000001,0)" xlink:href="#aK"/><use transform="matrix(0.015190972222222224,0,0,0.015190972222222224,64.24262152777779,0)" xlink:href="#aL"/><use transform="matrix(0.015190972222222224,0,0,0.015190972222222224,71.77734375000001,0)" xlink:href="#aM"/><use transform="matrix(0.015190972222222224,0,0,0.015190972222222224,89.55078125000001,0)" xlink:href="#az"/><use transform="matrix(0.015190972222222224,0,0,0.015190972222222224,107.68880208333334,0)" xlink:href="#aB"/></g><g id="ab"><use transform="matrix(0.015190972222222224,0,0,0.015190972222222224,0,0)" xlink:href="#aV"/><use transform="matrix(0.015190972222222224,0,0,0.015190972222222224,19.049479166666668,0)" xlink:href="#aC"/><use transform="matrix(0.015190972222222224,0,0,0.015190972222222224,31.247829861111114,0)" xlink:href="#aL"/><use transform="matrix(0.015190972222222224,0,0,0.015190972222222224,38.782552083333336,0)" xlink:href="#aM"/><use transform="matrix(0.015190972222222224,0,0,0.015190972222222224,56.55598958333334,0)" xlink:href="#az"/></g><g id="ac"><use transform="matrix(0.015190972222222224,0,0,0.015190972222222224,0,0)" xlink:href="#bc"/><use transform="matrix(0.015190972222222224,0,0,0.015190972222222224,19.049479166666668,0)" xlink:href="#aA"/><use transform="matrix(0.015190972222222224,0,0,0.015190972222222224,37.445746527777786,0)" xlink:href="#aO"/><use transform="matrix(0.015190972222222224,0,0,0.015190972222222224,56.10026041666667,0)" xlink:href="#aN"/><use transform="matrix(0.015190972222222224,0,0,0.015190972222222224,65.97439236111111,0)" xlink:href="#az"/><use transform="matrix(0.015190972222222224,0,0,0.015190972222222224,84.11241319444446,0)" xlink:href="#aB"/></g><g id="ad"><use transform="matrix(0.015190972222222224,0,0,0.015190972222222224,0,0)" xlink:href="#aV"/><use transform="matrix(0.015190972222222224,0,0,0.015190972222222224,19.049479166666668,0)" xlink:href="#aC"/><use transform="matrix(0.015190972222222224,0,0,0.015190972222222224,31.247829861111114,0)" xlink:href="#aL"/><use transform="matrix(0.015190972222222224,0,0,0.015190972222222224,38.782552083333336,0)" xlink:href="#aM"/><use transform="matrix(0.015190972222222224,0,0,0.015190972222222224,56.55598958333334,0)" xlink:href="#az"/></g><path d="M157-1118h181V80c1 225-123 350-364 338V252c126 9 184-48 183-172v-1198zm91-183c-68 0-125-53-125-119s57-119 125-119c69 0 126 53 126 119s-57 119-126 119" id="bp"/><g id="ae"><use transform="matrix(0.015190972222222224,0,0,0.015190972222222224,0,0)" xlink:href="#bo"/><use transform="matrix(0.015190972222222224,0,0,0.015190972222222224,19.56597222222222,0)" xlink:href="#az"/><use transform="matrix(0.015190972222222224,0,0,0.015190972222222224,37.70399305555556,0)" xlink:href="#bp"/><use transform="matrix(0.015190972222222224,0,0,0.015190972222222224,45.23871527777778,0)" xlink:href="#az"/><use transform="matrix(0.015190972222222224,0,0,0.015190972222222224,63.376736111111114,0)" xlink:href="#aM"/><use transform="matrix(0.015190972222222224,0,0,0.015190972222222224,81.15017361111111,0)" xlink:href="#aN"/></g><g id="af"><use transform="matrix(0.015190972222222224,0,0,0.015190972222222224,0,0)" xlink:href="#aV"/><use transform="matrix(0.015190972222222224,0,0,0.015190972222222224,19.049479166666668,0)" xlink:href="#aC"/><use transform="matrix(0.015190972222222224,0,0,0.015190972222222224,30.245225694444443,0)" xlink:href="#aO"/><use transform="matrix(0.015190972222222224,0,0,0.015190972222222224,48.89973958333333,0)" xlink:href="#aW"/><use transform="matrix(0.015190972222222224,0,0,0.015190972222222224,59.50303819444444,0)" xlink:href="#az"/><use transform="matrix(0.015190972222222224,0,0,0.015190972222222224,77.64105902777777,0)" xlink:href="#aB"/><use transform="matrix(0.015190972222222224,0,0,0.015190972222222224,94.0625,0)" xlink:href="#aB"/><use transform="matrix(0.015190972222222224,0,0,0.015190972222222224,110.48394097222223,0)" xlink:href="#aL"/><use transform="matrix(0.015190972222222224,0,0,0.015190972222222224,118.01866319444446,0)" xlink:href="#aO"/><use transform="matrix(0.015190972222222224,0,0,0.015190972222222224,136.67317708333334,0)" xlink:href="#ax"/><use transform="matrix(0.015190972222222224,0,0,0.015190972222222224,155.05425347222223,0)" xlink:href="#aw"/><use transform="matrix(0.015190972222222224,0,0,0.015190972222222224,172.52387152777777,0)" xlink:href="#aQ"/></g><g id="ag"><use transform="matrix(0.015190972222222224,0,0,0.015190972222222224,0,0)" xlink:href="#aV"/><use transform="matrix(0.015190972222222224,0,0,0.015190972222222224,19.049479166666668,0)" xlink:href="#aC"/><use transform="matrix(0.015190972222222224,0,0,0.015190972222222224,30.245225694444443,0)" xlink:href="#aO"/><use transform="matrix(0.015190972222222224,0,0,0.015190972222222224,48.89973958333333,0)" xlink:href="#aW"/><use transform="matrix(0.015190972222222224,0,0,0.015190972222222224,60.41449652777777,0)" xlink:href="#aL"/><use transform="matrix(0.015190972222222224,0,0,0.015190972222222224,67.94921875,0)" xlink:href="#aQ"/><use transform="matrix(0.015190972222222224,0,0,0.015190972222222224,75.48394097222223,0)" xlink:href="#az"/></g><g id="ah"><use transform="matrix(0.015190972222222224,0,0,0.015190972222222224,0,0)" xlink:href="#bo"/><use transform="matrix(0.015190972222222224,0,0,0.015190972222222224,19.56597222222222,0)" xlink:href="#az"/><use transform="matrix(0.015190972222222224,0,0,0.015190972222222224,37.09635416666667,0)" xlink:href="#aK"/><use transform="matrix(0.015190972222222224,0,0,0.015190972222222224,54.58116319444445,0)" xlink:href="#aL"/><use transform="matrix(0.015190972222222224,0,0,0.015190972222222224,62.11588541666667,0)" xlink:href="#az"/><use transform="matrix(0.015190972222222224,0,0,0.015190972222222224,79.69184027777779,0)" xlink:href="#aS"/></g><g id="ai"><use transform="matrix(0.015190972222222224,0,0,0.015190972222222224,0,0)" xlink:href="#aM"/><use transform="matrix(0.015190972222222224,0,0,0.015190972222222224,17.773437500000004,0)" xlink:href="#aO"/><use transform="matrix(0.015190972222222224,0,0,0.015190972222222224,36.42795138888889,0)" xlink:href="#aP"/><use transform="matrix(0.015190972222222224,0,0,0.015190972222222224,63.680555555555564,0)" xlink:href="#aV"/><use transform="matrix(0.015190972222222224,0,0,0.015190972222222224,82.73003472222223,0)" xlink:href="#aQ"/><use transform="matrix(0.015190972222222224,0,0,0.015190972222222224,90.26475694444446,0)" xlink:href="#az"/><use transform="matrix(0.015190972222222224,0,0,0.015190972222222224,108.4027777777778,0)" xlink:href="#aN"/><use transform="matrix(0.015190972222222224,0,0,0.015190972222222224,118.27690972222224,0)" xlink:href="#az"/><use transform="matrix(0.015190972222222224,0,0,0.015190972222222224,136.41493055555557,0)" xlink:href="#aR"/></g><g id="aj"><use transform="matrix(0.015190972222222224,0,0,0.015190972222222224,0,0)" xlink:href="#aV"/><use transform="matrix(0.015190972222222224,0,0,0.015190972222222224,19.049479166666668,0)" xlink:href="#aC"/><use transform="matrix(0.015190972222222224,0,0,0.015190972222222224,30.245225694444443,0)" xlink:href="#aO"/><use transform="matrix(0.015190972222222224,0,0,0.015190972222222224,48.89973958333333,0)" xlink:href="#aW"/><use transform="matrix(0.015190972222222224,0,0,0.015190972222222224,59.50303819444444,0)" xlink:href="#az"/><use transform="matrix(0.015190972222222224,0,0,0.015190972222222224,77.64105902777777,0)" xlink:href="#aB"/><use transform="matrix(0.015190972222222224,0,0,0.015190972222222224,94.0625,0)" xlink:href="#aB"/><use transform="matrix(0.015190972222222224,0,0,0.015190972222222224,110.48394097222223,0)" xlink:href="#aL"/><use transform="matrix(0.015190972222222224,0,0,0.015190972222222224,118.01866319444446,0)" xlink:href="#aO"/><use transform="matrix(0.015190972222222224,0,0,0.015190972222222224,136.67317708333334,0)" xlink:href="#ax"/><use transform="matrix(0.015190972222222224,0,0,0.015190972222222224,155.05425347222223,0)" xlink:href="#aw"/><use transform="matrix(0.015190972222222224,0,0,0.015190972222222224,172.52387152777777,0)" xlink:href="#aQ"/><use transform="matrix(0.015190972222222224,0,0,0.015190972222222224,180.05859375,0)" xlink:href="#aB"/></g></defs></g></svg>